<mxfile host="app.diagrams.net" agent="Mozilla/5.0 (Windows NT 10.0; Win64; x64) AppleWebKit/537.36 (KHTML, like Gecko) Chrome/139.0.0.0 Safari/537.36" version="28.1.2" pages="11">
  <diagram id="gH6ExD7r3pw6sCmBr4F2" name="研发全链路打通">
    <mxGraphModel dx="1185" dy="623" grid="1" gridSize="10" guides="1" tooltips="1" connect="1" arrows="1" fold="1" page="1" pageScale="1" pageWidth="1654" pageHeight="1169" math="0" shadow="0">
      <root>
        <mxCell id="0" />
        <mxCell id="1" parent="0" />
        <mxCell id="vGT4WUJgk1BRKqOLMX-R-2" value="研发管理平台" style="rounded=0;whiteSpace=wrap;html=1;labelPosition=left;verticalLabelPosition=middle;align=right;verticalAlign=middle;fillColor=#fad9d5;strokeColor=#ae4132;" parent="1" vertex="1">
          <mxGeometry x="520" y="120" width="470" height="60" as="geometry" />
        </mxCell>
        <mxCell id="vGT4WUJgk1BRKqOLMX-R-7" value="" style="edgeStyle=orthogonalEdgeStyle;rounded=0;orthogonalLoop=1;jettySize=auto;html=1;" parent="1" source="vGT4WUJgk1BRKqOLMX-R-4" target="vGT4WUJgk1BRKqOLMX-R-5" edge="1">
          <mxGeometry relative="1" as="geometry" />
        </mxCell>
        <mxCell id="vGT4WUJgk1BRKqOLMX-R-4" value="集成中间层" style="rounded=0;whiteSpace=wrap;html=1;labelPosition=left;verticalLabelPosition=middle;align=right;verticalAlign=middle;fillColor=#b0e3e6;strokeColor=#0e8088;" parent="1" vertex="1">
          <mxGeometry x="520" y="230" width="470" height="100" as="geometry" />
        </mxCell>
        <mxCell id="vGT4WUJgk1BRKqOLMX-R-5" value="外部系统" style="rounded=0;whiteSpace=wrap;html=1;labelPosition=left;verticalLabelPosition=middle;align=right;verticalAlign=middle;fillColor=#fad9d5;strokeColor=#ae4132;" parent="1" vertex="1">
          <mxGeometry x="520" y="380" width="470" height="60" as="geometry" />
        </mxCell>
        <mxCell id="vGT4WUJgk1BRKqOLMX-R-6" value="" style="endArrow=classic;html=1;rounded=0;exitX=0.5;exitY=1;exitDx=0;exitDy=0;" parent="1" source="vGT4WUJgk1BRKqOLMX-R-2" target="vGT4WUJgk1BRKqOLMX-R-4" edge="1">
          <mxGeometry width="50" height="50" relative="1" as="geometry">
            <mxPoint x="690" y="240" as="sourcePoint" />
            <mxPoint x="740" y="190" as="targetPoint" />
          </mxGeometry>
        </mxCell>
        <mxCell id="vGT4WUJgk1BRKqOLMX-R-8" value="需求管理" style="rounded=0;whiteSpace=wrap;html=1;" parent="1" vertex="1">
          <mxGeometry x="540" y="395" width="70" height="30" as="geometry" />
        </mxCell>
        <mxCell id="vGT4WUJgk1BRKqOLMX-R-9" value="代码管理" style="rounded=0;whiteSpace=wrap;html=1;" parent="1" vertex="1">
          <mxGeometry x="630" y="395" width="70" height="30" as="geometry" />
        </mxCell>
        <mxCell id="vGT4WUJgk1BRKqOLMX-R-10" value="CICD" style="rounded=0;whiteSpace=wrap;html=1;" parent="1" vertex="1">
          <mxGeometry x="717" y="395" width="70" height="30" as="geometry" />
        </mxCell>
        <mxCell id="vGT4WUJgk1BRKqOLMX-R-11" value="测试管理" style="rounded=0;whiteSpace=wrap;html=1;" parent="1" vertex="1">
          <mxGeometry x="810" y="395" width="70" height="30" as="geometry" />
        </mxCell>
        <mxCell id="vGT4WUJgk1BRKqOLMX-R-12" value="..." style="rounded=0;whiteSpace=wrap;html=1;" parent="1" vertex="1">
          <mxGeometry x="900" y="395" width="70" height="30" as="geometry" />
        </mxCell>
        <mxCell id="vGT4WUJgk1BRKqOLMX-R-13" value="协议转换" style="rounded=0;whiteSpace=wrap;html=1;" parent="1" vertex="1">
          <mxGeometry x="580" y="245" width="80" height="30" as="geometry" />
        </mxCell>
        <mxCell id="vGT4WUJgk1BRKqOLMX-R-14" value="数据转换" style="rounded=0;whiteSpace=wrap;html=1;" parent="1" vertex="1">
          <mxGeometry x="720" y="245" width="80" height="30" as="geometry" />
        </mxCell>
        <mxCell id="vGT4WUJgk1BRKqOLMX-R-15" value="状态协调" style="rounded=0;whiteSpace=wrap;html=1;" parent="1" vertex="1">
          <mxGeometry x="860" y="245" width="80" height="30" as="geometry" />
        </mxCell>
        <mxCell id="vGT4WUJgk1BRKqOLMX-R-17" value="工作空间" style="rounded=0;whiteSpace=wrap;html=1;" parent="1" vertex="1">
          <mxGeometry x="550" y="135" width="80" height="30" as="geometry" />
        </mxCell>
        <mxCell id="vGT4WUJgk1BRKqOLMX-R-18" value="任务管理" style="rounded=0;whiteSpace=wrap;html=1;" parent="1" vertex="1">
          <mxGeometry x="660" y="135" width="80" height="30" as="geometry" />
        </mxCell>
        <mxCell id="vGT4WUJgk1BRKqOLMX-R-19" value="发版管理" style="rounded=0;whiteSpace=wrap;html=1;" parent="1" vertex="1">
          <mxGeometry x="770" y="135" width="80" height="30" as="geometry" />
        </mxCell>
        <mxCell id="vGT4WUJgk1BRKqOLMX-R-20" value="..." style="rounded=0;whiteSpace=wrap;html=1;" parent="1" vertex="1">
          <mxGeometry x="880" y="135" width="80" height="30" as="geometry" />
        </mxCell>
        <mxCell id="vGT4WUJgk1BRKqOLMX-R-21" value="集成框架" style="rounded=0;whiteSpace=wrap;html=1;" parent="1" vertex="1">
          <mxGeometry x="580" y="285" width="80" height="30" as="geometry" />
        </mxCell>
        <mxCell id="vGT4WUJgk1BRKqOLMX-R-22" value="通信" style="rounded=0;whiteSpace=wrap;html=1;" parent="1" vertex="1">
          <mxGeometry x="720" y="285" width="80" height="30" as="geometry" />
        </mxCell>
        <mxCell id="vGT4WUJgk1BRKqOLMX-R-23" value="认证鉴权" style="rounded=0;whiteSpace=wrap;html=1;" parent="1" vertex="1">
          <mxGeometry x="860" y="285" width="80" height="30" as="geometry" />
        </mxCell>
      </root>
    </mxGraphModel>
  </diagram>
  <diagram id="PDZTJr9wq57lSIvc4OW9" name="需求管理集成">
    <mxGraphModel dx="942" dy="737" grid="1" gridSize="10" guides="1" tooltips="1" connect="1" arrows="1" fold="1" page="1" pageScale="1" pageWidth="1654" pageHeight="1169" math="0" shadow="0">
      <root>
        <mxCell id="0" />
        <mxCell id="1" parent="0" />
        <mxCell id="s0LQ9sjcpDhpOdtgp546-1" value="k8s ingress 负载均衡" style="rounded=0;whiteSpace=wrap;html=1;fillColor=#cce5ff;strokeColor=#36393d;" parent="1" vertex="1">
          <mxGeometry x="120" y="130" width="470" height="40" as="geometry" />
        </mxCell>
        <mxCell id="s0LQ9sjcpDhpOdtgp546-2" value="前端服务" style="rounded=0;whiteSpace=wrap;html=1;labelPosition=left;verticalLabelPosition=middle;align=right;verticalAlign=middle;fillColor=#cce5ff;strokeColor=#36393d;" parent="1" vertex="1">
          <mxGeometry x="120" y="210" width="470" height="60" as="geometry" />
        </mxCell>
        <mxCell id="s0LQ9sjcpDhpOdtgp546-3" value="研发管理" style="rounded=1;whiteSpace=wrap;html=1;" parent="1" vertex="1">
          <mxGeometry x="160" y="220" width="90" height="40" as="geometry" />
        </mxCell>
        <mxCell id="s0LQ9sjcpDhpOdtgp546-4" value="代码管理" style="rounded=1;whiteSpace=wrap;html=1;" parent="1" vertex="1">
          <mxGeometry x="260" y="220" width="90" height="40" as="geometry" />
        </mxCell>
        <mxCell id="s0LQ9sjcpDhpOdtgp546-5" value="发版管理" style="rounded=1;whiteSpace=wrap;html=1;" parent="1" vertex="1">
          <mxGeometry x="360" y="220" width="90" height="40" as="geometry" />
        </mxCell>
        <mxCell id="s0LQ9sjcpDhpOdtgp546-6" value="需求管理" style="rounded=1;whiteSpace=wrap;html=1;fillColor=#60a917;fontColor=#ffffff;strokeColor=#2D7600;" parent="1" vertex="1">
          <mxGeometry x="460" y="220" width="90" height="40" as="geometry" />
        </mxCell>
        <mxCell id="s0LQ9sjcpDhpOdtgp546-7" value="网关服务" style="rounded=0;whiteSpace=wrap;html=1;fillColor=#cce5ff;strokeColor=#36393d;" parent="1" vertex="1">
          <mxGeometry x="120" y="310" width="470" height="30" as="geometry" />
        </mxCell>
        <mxCell id="s0LQ9sjcpDhpOdtgp546-9" value="后端服务" style="rounded=0;whiteSpace=wrap;html=1;labelPosition=left;verticalLabelPosition=middle;align=right;verticalAlign=middle;fillColor=#cce5ff;strokeColor=#36393d;" parent="1" vertex="1">
          <mxGeometry x="120" y="380" width="470" height="140" as="geometry" />
        </mxCell>
        <mxCell id="s0LQ9sjcpDhpOdtgp546-15" value="" style="endArrow=classic;html=1;rounded=0;exitX=0.5;exitY=1;exitDx=0;exitDy=0;entryX=0.5;entryY=0;entryDx=0;entryDy=0;" parent="1" source="s0LQ9sjcpDhpOdtgp546-1" target="s0LQ9sjcpDhpOdtgp546-2" edge="1">
          <mxGeometry width="50" height="50" relative="1" as="geometry">
            <mxPoint x="350" y="230" as="sourcePoint" />
            <mxPoint x="400" y="180" as="targetPoint" />
          </mxGeometry>
        </mxCell>
        <mxCell id="s0LQ9sjcpDhpOdtgp546-18" value="工作台" style="rounded=1;whiteSpace=wrap;html=1;" parent="1" vertex="1">
          <mxGeometry x="160" y="400" width="90" height="40" as="geometry" />
        </mxCell>
        <mxCell id="s0LQ9sjcpDhpOdtgp546-19" value="存储服务" style="rounded=0;whiteSpace=wrap;html=1;labelPosition=left;verticalLabelPosition=middle;align=right;verticalAlign=middle;fillColor=#cce5ff;strokeColor=#36393d;" parent="1" vertex="1">
          <mxGeometry x="120" y="560" width="470" height="80" as="geometry" />
        </mxCell>
        <mxCell id="s0LQ9sjcpDhpOdtgp546-20" value="MySQL" style="rounded=1;whiteSpace=wrap;html=1;" parent="1" vertex="1">
          <mxGeometry x="170" y="580" width="90" height="40" as="geometry" />
        </mxCell>
        <mxCell id="s0LQ9sjcpDhpOdtgp546-21" value="minio" style="rounded=1;whiteSpace=wrap;html=1;" parent="1" vertex="1">
          <mxGeometry x="290" y="580" width="90" height="40" as="geometry" />
        </mxCell>
        <mxCell id="s0LQ9sjcpDhpOdtgp546-22" value="git代码文件" style="rounded=1;whiteSpace=wrap;html=1;" parent="1" vertex="1">
          <mxGeometry x="410" y="580" width="90" height="40" as="geometry" />
        </mxCell>
        <mxCell id="s0LQ9sjcpDhpOdtgp546-23" value="任务管理" style="rounded=1;whiteSpace=wrap;html=1;" parent="1" vertex="1">
          <mxGeometry x="260" y="400" width="90" height="40" as="geometry" />
        </mxCell>
        <mxCell id="s0LQ9sjcpDhpOdtgp546-24" value="查询服务" style="rounded=1;whiteSpace=wrap;html=1;" parent="1" vertex="1">
          <mxGeometry x="360" y="400" width="90" height="40" as="geometry" />
        </mxCell>
        <mxCell id="s0LQ9sjcpDhpOdtgp546-25" value="流程引擎" style="rounded=1;whiteSpace=wrap;html=1;" parent="1" vertex="1">
          <mxGeometry x="160" y="460" width="90" height="40" as="geometry" />
        </mxCell>
        <mxCell id="s0LQ9sjcpDhpOdtgp546-26" value="代码管理" style="rounded=1;whiteSpace=wrap;html=1;" parent="1" vertex="1">
          <mxGeometry x="260" y="460" width="90" height="40" as="geometry" />
        </mxCell>
        <mxCell id="s0LQ9sjcpDhpOdtgp546-27" value="发版管理" style="rounded=1;whiteSpace=wrap;html=1;" parent="1" vertex="1">
          <mxGeometry x="360" y="460" width="90" height="40" as="geometry" />
        </mxCell>
        <mxCell id="s0LQ9sjcpDhpOdtgp546-28" value="需求管理&lt;br&gt;（内置流程引擎）" style="rounded=1;whiteSpace=wrap;html=1;fillColor=#60a917;fontColor=#ffffff;strokeColor=#2D7600;" parent="1" vertex="1">
          <mxGeometry x="460" y="400" width="100" height="100" as="geometry" />
        </mxCell>
        <mxCell id="s0LQ9sjcpDhpOdtgp546-31" value="" style="endArrow=classic;html=1;rounded=0;exitX=0.5;exitY=1;exitDx=0;exitDy=0;entryX=0.5;entryY=0;entryDx=0;entryDy=0;" parent="1" edge="1">
          <mxGeometry width="50" height="50" relative="1" as="geometry">
            <mxPoint x="354.5" y="270" as="sourcePoint" />
            <mxPoint x="354.5" y="310" as="targetPoint" />
          </mxGeometry>
        </mxCell>
        <mxCell id="s0LQ9sjcpDhpOdtgp546-33" value="" style="endArrow=classic;html=1;rounded=0;exitX=0.5;exitY=1;exitDx=0;exitDy=0;entryX=0.5;entryY=0;entryDx=0;entryDy=0;" parent="1" edge="1">
          <mxGeometry width="50" height="50" relative="1" as="geometry">
            <mxPoint x="354.5" y="340" as="sourcePoint" />
            <mxPoint x="354.5" y="380" as="targetPoint" />
          </mxGeometry>
        </mxCell>
        <mxCell id="s0LQ9sjcpDhpOdtgp546-34" value="" style="endArrow=classic;html=1;rounded=0;exitX=0.5;exitY=1;exitDx=0;exitDy=0;entryX=0.5;entryY=0;entryDx=0;entryDy=0;" parent="1" edge="1">
          <mxGeometry width="50" height="50" relative="1" as="geometry">
            <mxPoint x="354.5" y="520" as="sourcePoint" />
            <mxPoint x="354.5" y="560" as="targetPoint" />
          </mxGeometry>
        </mxCell>
      </root>
    </mxGraphModel>
  </diagram>
  <diagram name="技术架构" id="W9r2tDBumVQc0wMREd8o">
    <mxGraphModel dx="941" dy="736" grid="0" gridSize="10" guides="1" tooltips="1" connect="1" arrows="1" fold="1" page="1" pageScale="1" pageWidth="1654" pageHeight="1169" math="0" shadow="0">
      <root>
        <mxCell id="EFM9fa1tWIZbNMhHbIeV-0" />
        <mxCell id="EFM9fa1tWIZbNMhHbIeV-1" parent="EFM9fa1tWIZbNMhHbIeV-0" />
        <mxCell id="EFM9fa1tWIZbNMhHbIeV-2" value="k8s ingress 负载均衡" style="rounded=0;whiteSpace=wrap;html=1;fillColor=#cce5ff;strokeColor=#36393d;" parent="EFM9fa1tWIZbNMhHbIeV-1" vertex="1">
          <mxGeometry x="320" y="130" width="470" height="40" as="geometry" />
        </mxCell>
        <mxCell id="EFM9fa1tWIZbNMhHbIeV-3" value="前端服务" style="rounded=0;whiteSpace=wrap;html=1;labelPosition=left;verticalLabelPosition=middle;align=right;verticalAlign=middle;fillColor=#cce5ff;strokeColor=#36393d;" parent="EFM9fa1tWIZbNMhHbIeV-1" vertex="1">
          <mxGeometry x="320" y="210" width="470" height="60" as="geometry" />
        </mxCell>
        <mxCell id="EFM9fa1tWIZbNMhHbIeV-4" value="研发管理" style="rounded=1;whiteSpace=wrap;html=1;" parent="EFM9fa1tWIZbNMhHbIeV-1" vertex="1">
          <mxGeometry x="360" y="220" width="90" height="40" as="geometry" />
        </mxCell>
        <mxCell id="EFM9fa1tWIZbNMhHbIeV-6" value="发版管理" style="rounded=1;whiteSpace=wrap;html=1;" parent="EFM9fa1tWIZbNMhHbIeV-1" vertex="1">
          <mxGeometry x="460" y="220" width="90" height="40" as="geometry" />
        </mxCell>
        <mxCell id="EFM9fa1tWIZbNMhHbIeV-7" value="文档管理" style="rounded=1;whiteSpace=wrap;html=1;fillColor=#60a917;fontColor=#ffffff;strokeColor=#2D7600;" parent="EFM9fa1tWIZbNMhHbIeV-1" vertex="1">
          <mxGeometry x="660" y="220" width="90" height="40" as="geometry" />
        </mxCell>
        <mxCell id="EFM9fa1tWIZbNMhHbIeV-8" value="网关服务" style="rounded=0;whiteSpace=wrap;html=1;fillColor=#cce5ff;strokeColor=#36393d;" parent="EFM9fa1tWIZbNMhHbIeV-1" vertex="1">
          <mxGeometry x="320" y="310" width="470" height="30" as="geometry" />
        </mxCell>
        <mxCell id="EFM9fa1tWIZbNMhHbIeV-9" value="后端服务" style="rounded=0;whiteSpace=wrap;html=1;labelPosition=left;verticalLabelPosition=middle;align=right;verticalAlign=middle;fillColor=#cce5ff;strokeColor=#36393d;" parent="EFM9fa1tWIZbNMhHbIeV-1" vertex="1">
          <mxGeometry x="320" y="380" width="470" height="140" as="geometry" />
        </mxCell>
        <mxCell id="EFM9fa1tWIZbNMhHbIeV-10" value="" style="endArrow=classic;html=1;rounded=0;exitX=0.5;exitY=1;exitDx=0;exitDy=0;entryX=0.5;entryY=0;entryDx=0;entryDy=0;" parent="EFM9fa1tWIZbNMhHbIeV-1" source="EFM9fa1tWIZbNMhHbIeV-2" target="EFM9fa1tWIZbNMhHbIeV-3" edge="1">
          <mxGeometry width="50" height="50" relative="1" as="geometry">
            <mxPoint x="550" y="230" as="sourcePoint" />
            <mxPoint x="600" y="180" as="targetPoint" />
          </mxGeometry>
        </mxCell>
        <mxCell id="EFM9fa1tWIZbNMhHbIeV-11" value="工作台" style="rounded=1;whiteSpace=wrap;html=1;" parent="EFM9fa1tWIZbNMhHbIeV-1" vertex="1">
          <mxGeometry x="360" y="400" width="90" height="40" as="geometry" />
        </mxCell>
        <mxCell id="EFM9fa1tWIZbNMhHbIeV-12" value="存储服务" style="rounded=0;whiteSpace=wrap;html=1;labelPosition=left;verticalLabelPosition=middle;align=right;verticalAlign=middle;fillColor=#cce5ff;strokeColor=#36393d;" parent="EFM9fa1tWIZbNMhHbIeV-1" vertex="1">
          <mxGeometry x="320" y="560" width="470" height="80" as="geometry" />
        </mxCell>
        <mxCell id="EFM9fa1tWIZbNMhHbIeV-13" value="GoldenDB" style="rounded=1;whiteSpace=wrap;html=1;" parent="EFM9fa1tWIZbNMhHbIeV-1" vertex="1">
          <mxGeometry x="360" y="580" width="90" height="40" as="geometry" />
        </mxCell>
        <mxCell id="EFM9fa1tWIZbNMhHbIeV-14" value="MinIO" style="rounded=1;whiteSpace=wrap;html=1;" parent="EFM9fa1tWIZbNMhHbIeV-1" vertex="1">
          <mxGeometry x="460" y="580" width="90" height="40" as="geometry" />
        </mxCell>
        <mxCell id="EFM9fa1tWIZbNMhHbIeV-15" value="Git" style="rounded=1;whiteSpace=wrap;html=1;" parent="EFM9fa1tWIZbNMhHbIeV-1" vertex="1">
          <mxGeometry x="560" y="580" width="90" height="40" as="geometry" />
        </mxCell>
        <mxCell id="EFM9fa1tWIZbNMhHbIeV-16" value="任务管理" style="rounded=1;whiteSpace=wrap;html=1;" parent="EFM9fa1tWIZbNMhHbIeV-1" vertex="1">
          <mxGeometry x="460" y="400" width="90" height="40" as="geometry" />
        </mxCell>
        <mxCell id="EFM9fa1tWIZbNMhHbIeV-17" value="查询服务" style="rounded=1;whiteSpace=wrap;html=1;" parent="EFM9fa1tWIZbNMhHbIeV-1" vertex="1">
          <mxGeometry x="560" y="400" width="90" height="40" as="geometry" />
        </mxCell>
        <mxCell id="EFM9fa1tWIZbNMhHbIeV-18" value="流程引擎" style="rounded=1;whiteSpace=wrap;html=1;" parent="EFM9fa1tWIZbNMhHbIeV-1" vertex="1">
          <mxGeometry x="360" y="460" width="90" height="40" as="geometry" />
        </mxCell>
        <mxCell id="EFM9fa1tWIZbNMhHbIeV-19" value="代码管理" style="rounded=1;whiteSpace=wrap;html=1;" parent="EFM9fa1tWIZbNMhHbIeV-1" vertex="1">
          <mxGeometry x="460" y="460" width="90" height="40" as="geometry" />
        </mxCell>
        <mxCell id="EFM9fa1tWIZbNMhHbIeV-20" value="发版管理" style="rounded=1;whiteSpace=wrap;html=1;" parent="EFM9fa1tWIZbNMhHbIeV-1" vertex="1">
          <mxGeometry x="660" y="400" width="90" height="40" as="geometry" />
        </mxCell>
        <mxCell id="EFM9fa1tWIZbNMhHbIeV-21" value="文档管理" style="rounded=1;whiteSpace=wrap;html=1;fillColor=#60a917;fontColor=#ffffff;strokeColor=#2D7600;" parent="EFM9fa1tWIZbNMhHbIeV-1" vertex="1">
          <mxGeometry x="660" y="460" width="90" height="40" as="geometry" />
        </mxCell>
        <mxCell id="EFM9fa1tWIZbNMhHbIeV-22" value="" style="endArrow=classic;html=1;rounded=0;exitX=0.5;exitY=1;exitDx=0;exitDy=0;entryX=0.5;entryY=0;entryDx=0;entryDy=0;" parent="EFM9fa1tWIZbNMhHbIeV-1" edge="1">
          <mxGeometry width="50" height="50" relative="1" as="geometry">
            <mxPoint x="554.5" y="270" as="sourcePoint" />
            <mxPoint x="554.5" y="310" as="targetPoint" />
          </mxGeometry>
        </mxCell>
        <mxCell id="EFM9fa1tWIZbNMhHbIeV-23" value="" style="endArrow=classic;html=1;rounded=0;exitX=0.5;exitY=1;exitDx=0;exitDy=0;entryX=0.5;entryY=0;entryDx=0;entryDy=0;" parent="EFM9fa1tWIZbNMhHbIeV-1" edge="1">
          <mxGeometry width="50" height="50" relative="1" as="geometry">
            <mxPoint x="554.5" y="340" as="sourcePoint" />
            <mxPoint x="554.5" y="380" as="targetPoint" />
          </mxGeometry>
        </mxCell>
        <mxCell id="EFM9fa1tWIZbNMhHbIeV-24" value="" style="endArrow=classic;html=1;rounded=0;exitX=0.5;exitY=1;exitDx=0;exitDy=0;entryX=0.5;entryY=0;entryDx=0;entryDy=0;" parent="EFM9fa1tWIZbNMhHbIeV-1" edge="1">
          <mxGeometry width="50" height="50" relative="1" as="geometry">
            <mxPoint x="554.5" y="520" as="sourcePoint" />
            <mxPoint x="554.5" y="560" as="targetPoint" />
          </mxGeometry>
        </mxCell>
        <mxCell id="Ykgxl0jtKCQN8J2-CTSd-1" value="需求管理" style="rounded=1;whiteSpace=wrap;html=1;fillColor=#60a917;fontColor=#ffffff;strokeColor=#2D7600;" parent="EFM9fa1tWIZbNMhHbIeV-1" vertex="1">
          <mxGeometry x="560" y="460" width="90" height="40" as="geometry" />
        </mxCell>
        <mxCell id="Ykgxl0jtKCQN8J2-CTSd-2" value="需求管理" style="rounded=1;whiteSpace=wrap;html=1;fillColor=#60a917;fontColor=#ffffff;strokeColor=#2D7600;" parent="EFM9fa1tWIZbNMhHbIeV-1" vertex="1">
          <mxGeometry x="560" y="220" width="90" height="40" as="geometry" />
        </mxCell>
        <mxCell id="Ykgxl0jtKCQN8J2-CTSd-3" value="Disk" style="rounded=1;whiteSpace=wrap;html=1;" parent="EFM9fa1tWIZbNMhHbIeV-1" vertex="1">
          <mxGeometry x="660" y="580" width="90" height="40" as="geometry" />
        </mxCell>
      </root>
    </mxGraphModel>
  </diagram>
  <diagram name="外部对接" id="rUEY7lkW5VfPsnOcme2a">
    <mxGraphModel dx="942" dy="737" grid="1" gridSize="10" guides="1" tooltips="1" connect="1" arrows="1" fold="1" page="1" pageScale="1" pageWidth="1654" pageHeight="1169" math="0" shadow="0">
      <root>
        <mxCell id="iiKIA6gkNKB7FdFbAnWI-0" />
        <mxCell id="iiKIA6gkNKB7FdFbAnWI-1" parent="iiKIA6gkNKB7FdFbAnWI-0" />
        <mxCell id="iiKIA6gkNKB7FdFbAnWI-9" value="&lt;font color=&quot;#0000cc&quot; style=&quot;font-size: 20px;&quot;&gt;服务层&lt;/font&gt;&lt;br&gt;（逻辑编排、业务处理、数据处理、……）" style="rounded=0;whiteSpace=wrap;html=1;labelPosition=center;verticalLabelPosition=middle;align=center;verticalAlign=middle;fillColor=#cce5ff;strokeColor=#36393d;" parent="iiKIA6gkNKB7FdFbAnWI-1" vertex="1">
          <mxGeometry x="90" y="400" width="470" height="115" as="geometry" />
        </mxCell>
        <mxCell id="iiKIA6gkNKB7FdFbAnWI-12" value="&lt;font color=&quot;#0000cc&quot; style=&quot;font-size: 20px;&quot;&gt;接出层&lt;/font&gt;&lt;br&gt;&lt;div&gt;（服务路由、协议处理、流量转移、超时重试、熔断限流、安全、可观测性）&lt;/div&gt;" style="rounded=0;whiteSpace=wrap;html=1;labelPosition=center;verticalLabelPosition=middle;align=center;verticalAlign=middle;fillColor=#cce5ff;strokeColor=#36393d;" parent="iiKIA6gkNKB7FdFbAnWI-1" vertex="1">
          <mxGeometry x="90" y="560" width="470" height="50" as="geometry" />
        </mxCell>
        <mxCell id="iiKIA6gkNKB7FdFbAnWI-24" value="" style="endArrow=classic;html=1;rounded=0;exitX=0.5;exitY=1;exitDx=0;exitDy=0;entryX=0.5;entryY=0;entryDx=0;entryDy=0;" parent="iiKIA6gkNKB7FdFbAnWI-1" source="iiKIA6gkNKB7FdFbAnWI-9" target="iiKIA6gkNKB7FdFbAnWI-12" edge="1">
          <mxGeometry width="50" height="50" relative="1" as="geometry">
            <mxPoint x="324.5" y="515" as="sourcePoint" />
            <mxPoint x="324.5" y="555" as="targetPoint" />
          </mxGeometry>
        </mxCell>
        <mxCell id="fSM772z7dpRVx664N-ym-0" value="&lt;font color=&quot;#0000cc&quot; style=&quot;font-size: 20px;&quot;&gt;治理层&lt;/font&gt;&lt;br&gt;（集成服务管控）" style="rounded=0;whiteSpace=wrap;html=1;fillColor=#dae8fc;strokeColor=#6c8ebf;" parent="iiKIA6gkNKB7FdFbAnWI-1" vertex="1">
          <mxGeometry x="590" y="290" width="120" height="320" as="geometry" />
        </mxCell>
        <mxCell id="fSM772z7dpRVx664N-ym-1" value="&lt;font color=&quot;#0000cc&quot; style=&quot;font-size: 20px;&quot;&gt;接入层&lt;/font&gt;&lt;br&gt;（&lt;span style=&quot;background-color: initial;&quot;&gt;协议处理、数据处理、鉴权、流量控制、可观测性、……&lt;/span&gt;）" style="rounded=0;whiteSpace=wrap;html=1;labelPosition=center;verticalLabelPosition=middle;align=center;verticalAlign=middle;fillColor=#cce5ff;strokeColor=#36393d;" parent="iiKIA6gkNKB7FdFbAnWI-1" vertex="1">
          <mxGeometry x="90" y="292" width="470" height="60" as="geometry" />
        </mxCell>
        <mxCell id="fSM772z7dpRVx664N-ym-2" value="" style="endArrow=classic;html=1;rounded=0;exitX=0.5;exitY=1;exitDx=0;exitDy=0;entryX=0.5;entryY=0;entryDx=0;entryDy=0;" parent="iiKIA6gkNKB7FdFbAnWI-1" source="fSM772z7dpRVx664N-ym-1" edge="1">
          <mxGeometry width="50" height="50" relative="1" as="geometry">
            <mxPoint x="324.5" y="355" as="sourcePoint" />
            <mxPoint x="324.5" y="400" as="targetPoint" />
          </mxGeometry>
        </mxCell>
      </root>
    </mxGraphModel>
  </diagram>
  <diagram id="UVH_60yr17x0LNoMdkEP" name="需求结合流程V1">
    <mxGraphModel dx="942" dy="737" grid="1" gridSize="10" guides="1" tooltips="1" connect="1" arrows="1" fold="1" page="1" pageScale="1" pageWidth="1169" pageHeight="827" math="0" shadow="0">
      <root>
        <mxCell id="0" />
        <mxCell id="1" parent="0" />
        <mxCell id="AtvdtHbVNZPd3K6XQv3t-8" value="&lt;font style=&quot;font-size: 15px;&quot;&gt;多形态研发管理工具&lt;/font&gt;" style="rounded=0;whiteSpace=wrap;html=1;labelPosition=center;verticalLabelPosition=middle;align=left;verticalAlign=top;fontSize=15;fillColor=none;" parent="1" vertex="1">
          <mxGeometry x="100" y="540" width="740" height="180" as="geometry" />
        </mxCell>
        <mxCell id="xOWWWfOmI0MfvrZiOxUA-21" value="&lt;font style=&quot;font-size: 15px;&quot;&gt;需求管理平台&lt;/font&gt;" style="rounded=0;whiteSpace=wrap;html=1;labelPosition=center;verticalLabelPosition=middle;align=left;verticalAlign=top;fontSize=15;fillColor=none;" parent="1" vertex="1">
          <mxGeometry x="320" y="380" width="520" height="140" as="geometry" />
        </mxCell>
        <mxCell id="AtvdtHbVNZPd3K6XQv3t-3" value="" style="edgeStyle=orthogonalEdgeStyle;rounded=0;orthogonalLoop=1;jettySize=auto;html=1;strokeColor=#66B2FF;" parent="1" source="AtvdtHbVNZPd3K6XQv3t-1" target="AtvdtHbVNZPd3K6XQv3t-2" edge="1">
          <mxGeometry relative="1" as="geometry" />
        </mxCell>
        <mxCell id="AtvdtHbVNZPd3K6XQv3t-1" value="新建&lt;br&gt;业务需求" style="rounded=0;whiteSpace=wrap;html=1;fillColor=#dae8fc;strokeColor=#6c8ebf;" parent="1" vertex="1">
          <mxGeometry x="120" y="600" width="80" height="40" as="geometry" />
        </mxCell>
        <mxCell id="AtvdtHbVNZPd3K6XQv3t-7" style="edgeStyle=orthogonalEdgeStyle;rounded=0;orthogonalLoop=1;jettySize=auto;html=1;entryX=0;entryY=0.5;entryDx=0;entryDy=0;fontColor=#FFFFFF;strokeColor=#66B2FF;" parent="1" source="AtvdtHbVNZPd3K6XQv3t-2" target="AtvdtHbVNZPd3K6XQv3t-11" edge="1">
          <mxGeometry relative="1" as="geometry" />
        </mxCell>
        <mxCell id="xOWWWfOmI0MfvrZiOxUA-25" style="edgeStyle=orthogonalEdgeStyle;rounded=0;orthogonalLoop=1;jettySize=auto;html=1;entryX=0.5;entryY=1;entryDx=0;entryDy=0;fontColor=#000000;startArrow=none;startFill=0;strokeColor=#FFB570;exitX=0;exitY=0.25;exitDx=0;exitDy=0;" parent="1" source="AtvdtHbVNZPd3K6XQv3t-11" target="AtvdtHbVNZPd3K6XQv3t-6" edge="1">
          <mxGeometry relative="1" as="geometry" />
        </mxCell>
        <mxCell id="AtvdtHbVNZPd3K6XQv3t-2" value="已分配" style="rounded=0;whiteSpace=wrap;html=1;fillColor=#dae8fc;strokeColor=#6c8ebf;" parent="1" vertex="1">
          <mxGeometry x="120" y="660" width="80" height="40" as="geometry" />
        </mxCell>
        <mxCell id="AtvdtHbVNZPd3K6XQv3t-15" style="edgeStyle=orthogonalEdgeStyle;rounded=0;orthogonalLoop=1;jettySize=auto;html=1;entryX=0;entryY=0.5;entryDx=0;entryDy=0;fontSize=15;fontColor=#3399FF;strokeColor=#FFB570;" parent="1" source="AtvdtHbVNZPd3K6XQv3t-6" target="AtvdtHbVNZPd3K6XQv3t-10" edge="1">
          <mxGeometry relative="1" as="geometry" />
        </mxCell>
        <mxCell id="AtvdtHbVNZPd3K6XQv3t-6" value="需求分析&lt;br&gt;页面嵌套" style="rounded=0;whiteSpace=wrap;html=1;fillColor=#fff2cc;strokeColor=#d6b656;dashed=1;" parent="1" vertex="1">
          <mxGeometry x="220" y="600" width="80" height="40" as="geometry" />
        </mxCell>
        <mxCell id="xOWWWfOmI0MfvrZiOxUA-2" style="edgeStyle=orthogonalEdgeStyle;rounded=0;orthogonalLoop=1;jettySize=auto;html=1;entryX=0.5;entryY=1;entryDx=0;entryDy=0;startArrow=classic;startFill=1;dashed=1;strokeColor=#FFB570;" parent="1" source="AtvdtHbVNZPd3K6XQv3t-10" target="xOWWWfOmI0MfvrZiOxUA-1" edge="1">
          <mxGeometry relative="1" as="geometry" />
        </mxCell>
        <mxCell id="AtvdtHbVNZPd3K6XQv3t-10" value="需求&lt;br&gt;管理平台" style="rounded=0;whiteSpace=wrap;html=1;fillColor=#d5e8d4;strokeColor=#82b366;" parent="1" vertex="1">
          <mxGeometry x="340" y="560" width="80" height="40" as="geometry" />
        </mxCell>
        <mxCell id="AtvdtHbVNZPd3K6XQv3t-14" value="" style="edgeStyle=orthogonalEdgeStyle;rounded=0;orthogonalLoop=1;jettySize=auto;html=1;fontSize=15;fontColor=#3399FF;strokeColor=#66B2FF;" parent="1" source="AtvdtHbVNZPd3K6XQv3t-11" target="AtvdtHbVNZPd3K6XQv3t-12" edge="1">
          <mxGeometry relative="1" as="geometry" />
        </mxCell>
        <mxCell id="AtvdtHbVNZPd3K6XQv3t-11" value="已分析" style="rounded=0;whiteSpace=wrap;html=1;fillColor=#dae8fc;strokeColor=#6c8ebf;" parent="1" vertex="1">
          <mxGeometry x="340" y="660" width="80" height="40" as="geometry" />
        </mxCell>
        <mxCell id="xOWWWfOmI0MfvrZiOxUA-23" style="edgeStyle=orthogonalEdgeStyle;rounded=0;orthogonalLoop=1;jettySize=auto;html=1;entryX=0.5;entryY=1;entryDx=0;entryDy=0;fontColor=#000000;startArrow=none;startFill=0;strokeColor=#FFB570;" parent="1" source="AtvdtHbVNZPd3K6XQv3t-12" target="xOWWWfOmI0MfvrZiOxUA-3" edge="1">
          <mxGeometry relative="1" as="geometry" />
        </mxCell>
        <mxCell id="xOWWWfOmI0MfvrZiOxUA-24" style="edgeStyle=orthogonalEdgeStyle;rounded=0;orthogonalLoop=1;jettySize=auto;html=1;entryX=0.5;entryY=1;entryDx=0;entryDy=0;fontColor=#000000;startArrow=none;startFill=0;strokeColor=#66B2FF;" parent="1" source="AtvdtHbVNZPd3K6XQv3t-12" target="xOWWWfOmI0MfvrZiOxUA-7" edge="1">
          <mxGeometry relative="1" as="geometry" />
        </mxCell>
        <mxCell id="AtvdtHbVNZPd3K6XQv3t-12" value="需求评审单&lt;br&gt;页面嵌套" style="rounded=0;whiteSpace=wrap;html=1;fillColor=#fff2cc;strokeColor=#d6b656;dashed=1;" parent="1" vertex="1">
          <mxGeometry x="440" y="660" width="80" height="40" as="geometry" />
        </mxCell>
        <mxCell id="xOWWWfOmI0MfvrZiOxUA-1" value="需求设计" style="rounded=0;whiteSpace=wrap;html=1;fillColor=#dae8fc;strokeColor=#6c8ebf;" parent="1" vertex="1">
          <mxGeometry x="340" y="460" width="80" height="40" as="geometry" />
        </mxCell>
        <mxCell id="xOWWWfOmI0MfvrZiOxUA-22" style="edgeStyle=orthogonalEdgeStyle;rounded=0;orthogonalLoop=1;jettySize=auto;html=1;entryX=0;entryY=0.5;entryDx=0;entryDy=0;fontColor=#000000;startArrow=none;startFill=0;strokeColor=#66B2FF;" parent="1" source="xOWWWfOmI0MfvrZiOxUA-3" target="xOWWWfOmI0MfvrZiOxUA-5" edge="1">
          <mxGeometry relative="1" as="geometry">
            <Array as="points">
              <mxPoint x="480" y="420" />
            </Array>
          </mxGeometry>
        </mxCell>
        <mxCell id="xOWWWfOmI0MfvrZiOxUA-3" value="需求&lt;br&gt;内部评审" style="rounded=0;whiteSpace=wrap;html=1;fillColor=#f8cecc;strokeColor=#b85450;" parent="1" vertex="1">
          <mxGeometry x="440" y="460" width="80" height="40" as="geometry" />
        </mxCell>
        <mxCell id="xOWWWfOmI0MfvrZiOxUA-8" style="edgeStyle=orthogonalEdgeStyle;rounded=0;orthogonalLoop=1;jettySize=auto;html=1;entryX=0.5;entryY=0;entryDx=0;entryDy=0;dashed=1;startArrow=none;startFill=0;strokeColor=#66B2FF;" parent="1" source="xOWWWfOmI0MfvrZiOxUA-5" target="xOWWWfOmI0MfvrZiOxUA-7" edge="1">
          <mxGeometry relative="1" as="geometry" />
        </mxCell>
        <mxCell id="xOWWWfOmI0MfvrZiOxUA-9" value="规范、模板&lt;br&gt;开发、测试任务拆分" style="edgeLabel;html=1;align=center;verticalAlign=middle;resizable=0;points=[];" parent="xOWWWfOmI0MfvrZiOxUA-8" vertex="1" connectable="0">
          <mxGeometry x="-0.1818" y="1" relative="1" as="geometry">
            <mxPoint x="-1" y="-38" as="offset" />
          </mxGeometry>
        </mxCell>
        <mxCell id="xOWWWfOmI0MfvrZiOxUA-5" value="任务拆分" style="rounded=0;whiteSpace=wrap;html=1;fillColor=#f8cecc;strokeColor=#b85450;" parent="1" vertex="1">
          <mxGeometry x="540" y="400" width="80" height="40" as="geometry" />
        </mxCell>
        <mxCell id="xOWWWfOmI0MfvrZiOxUA-11" style="edgeStyle=orthogonalEdgeStyle;rounded=0;orthogonalLoop=1;jettySize=auto;html=1;entryX=0;entryY=0.5;entryDx=0;entryDy=0;startArrow=none;startFill=0;strokeColor=#66B2FF;" parent="1" source="xOWWWfOmI0MfvrZiOxUA-7" target="xOWWWfOmI0MfvrZiOxUA-10" edge="1">
          <mxGeometry relative="1" as="geometry" />
        </mxCell>
        <mxCell id="xOWWWfOmI0MfvrZiOxUA-7" value="任务分配" style="rounded=0;whiteSpace=wrap;html=1;fillColor=#dae8fc;strokeColor=#6c8ebf;" parent="1" vertex="1">
          <mxGeometry x="540" y="600" width="80" height="40" as="geometry" />
        </mxCell>
        <mxCell id="xOWWWfOmI0MfvrZiOxUA-12" style="edgeStyle=orthogonalEdgeStyle;rounded=0;orthogonalLoop=1;jettySize=auto;html=1;entryX=1;entryY=0.5;entryDx=0;entryDy=0;startArrow=none;startFill=0;strokeColor=#FFB570;exitX=0.5;exitY=0;exitDx=0;exitDy=0;" parent="1" source="xOWWWfOmI0MfvrZiOxUA-10" target="AtvdtHbVNZPd3K6XQv3t-10" edge="1">
          <mxGeometry relative="1" as="geometry">
            <Array as="points">
              <mxPoint x="680" y="580" />
            </Array>
          </mxGeometry>
        </mxCell>
        <mxCell id="xOWWWfOmI0MfvrZiOxUA-15" value="" style="edgeStyle=orthogonalEdgeStyle;rounded=0;orthogonalLoop=1;jettySize=auto;html=1;startArrow=none;startFill=0;strokeColor=#66B2FF;" parent="1" source="xOWWWfOmI0MfvrZiOxUA-10" target="xOWWWfOmI0MfvrZiOxUA-13" edge="1">
          <mxGeometry relative="1" as="geometry" />
        </mxCell>
        <mxCell id="xOWWWfOmI0MfvrZiOxUA-10" value="任务设计&lt;br&gt;页面嵌套" style="rounded=0;whiteSpace=wrap;html=1;fillColor=#fff2cc;strokeColor=#d6b656;dashed=1;" parent="1" vertex="1">
          <mxGeometry x="640" y="600" width="80" height="40" as="geometry" />
        </mxCell>
        <mxCell id="xOWWWfOmI0MfvrZiOxUA-17" value="" style="edgeStyle=orthogonalEdgeStyle;rounded=0;orthogonalLoop=1;jettySize=auto;html=1;startArrow=none;startFill=0;strokeColor=#66B2FF;" parent="1" source="xOWWWfOmI0MfvrZiOxUA-13" target="xOWWWfOmI0MfvrZiOxUA-16" edge="1">
          <mxGeometry relative="1" as="geometry" />
        </mxCell>
        <mxCell id="xOWWWfOmI0MfvrZiOxUA-13" value="…" style="rounded=0;whiteSpace=wrap;html=1;fillColor=#dae8fc;strokeColor=#6c8ebf;" parent="1" vertex="1">
          <mxGeometry x="660" y="670" width="40" height="20" as="geometry" />
        </mxCell>
        <mxCell id="xOWWWfOmI0MfvrZiOxUA-19" style="edgeStyle=orthogonalEdgeStyle;rounded=0;orthogonalLoop=1;jettySize=auto;html=1;entryX=0.5;entryY=1;entryDx=0;entryDy=0;startArrow=none;startFill=0;strokeColor=#FFB570;dashed=1;" parent="1" source="xOWWWfOmI0MfvrZiOxUA-16" target="xOWWWfOmI0MfvrZiOxUA-18" edge="1">
          <mxGeometry relative="1" as="geometry" />
        </mxCell>
        <mxCell id="xOWWWfOmI0MfvrZiOxUA-20" value="需求&lt;br&gt;分层分域" style="edgeLabel;html=1;align=center;verticalAlign=middle;resizable=0;points=[];" parent="xOWWWfOmI0MfvrZiOxUA-19" vertex="1" connectable="0">
          <mxGeometry x="-0.1256" y="-1" relative="1" as="geometry">
            <mxPoint as="offset" />
          </mxGeometry>
        </mxCell>
        <mxCell id="xOWWWfOmI0MfvrZiOxUA-16" value="生产&lt;br&gt;已部署" style="ellipse;whiteSpace=wrap;html=1;aspect=fixed;fillColor=#dae8fc;strokeColor=#6c8ebf;" parent="1" vertex="1">
          <mxGeometry x="755" y="655" width="50" height="50" as="geometry" />
        </mxCell>
        <mxCell id="xOWWWfOmI0MfvrZiOxUA-18" value="资产入库" style="rounded=0;whiteSpace=wrap;html=1;fillColor=#f8cecc;strokeColor=#b85450;" parent="1" vertex="1">
          <mxGeometry x="740" y="460" width="80" height="40" as="geometry" />
        </mxCell>
      </root>
    </mxGraphModel>
  </diagram>
  <diagram name="需求结合流程V2" id="j3Czg1WZLYfT3zg9trCN">
    <mxGraphModel dx="942" dy="737" grid="1" gridSize="10" guides="1" tooltips="1" connect="1" arrows="1" fold="1" page="1" pageScale="1" pageWidth="1169" pageHeight="827" background="none" math="0" shadow="0">
      <root>
        <mxCell id="Qy_aCqHIxHdt4xO_nR5T-0" />
        <mxCell id="Qy_aCqHIxHdt4xO_nR5T-1" parent="Qy_aCqHIxHdt4xO_nR5T-0" />
        <mxCell id="Qy_aCqHIxHdt4xO_nR5T-2" value="&lt;font style=&quot;font-size: 15px;&quot;&gt;&amp;nbsp; 多形态研发管理工具&lt;/font&gt;" style="rounded=0;whiteSpace=wrap;html=1;labelPosition=center;verticalLabelPosition=middle;align=left;verticalAlign=top;fontSize=15;fillColor=none;" parent="Qy_aCqHIxHdt4xO_nR5T-1" vertex="1">
          <mxGeometry x="200" y="530" width="700" height="190" as="geometry" />
        </mxCell>
        <mxCell id="Qy_aCqHIxHdt4xO_nR5T-3" value="&lt;font style=&quot;font-size: 15px;&quot;&gt;需求管理平台&lt;/font&gt;" style="rounded=0;whiteSpace=wrap;html=1;labelPosition=center;verticalLabelPosition=middle;align=center;verticalAlign=top;fontSize=15;fillColor=none;" parent="Qy_aCqHIxHdt4xO_nR5T-1" vertex="1">
          <mxGeometry x="320" y="320" width="580" height="190" as="geometry" />
        </mxCell>
        <mxCell id="Qy_aCqHIxHdt4xO_nR5T-4" value="" style="edgeStyle=orthogonalEdgeStyle;rounded=0;orthogonalLoop=1;jettySize=auto;html=1;strokeColor=#66B2FF;" parent="Qy_aCqHIxHdt4xO_nR5T-1" source="Qy_aCqHIxHdt4xO_nR5T-5" target="Qy_aCqHIxHdt4xO_nR5T-8" edge="1">
          <mxGeometry relative="1" as="geometry" />
        </mxCell>
        <mxCell id="Qy_aCqHIxHdt4xO_nR5T-5" value="新建&lt;br&gt;业务需求" style="rounded=0;whiteSpace=wrap;html=1;fillColor=#dae8fc;strokeColor=#6c8ebf;" parent="Qy_aCqHIxHdt4xO_nR5T-1" vertex="1">
          <mxGeometry x="220" y="600" width="80" height="40" as="geometry" />
        </mxCell>
        <mxCell id="Qy_aCqHIxHdt4xO_nR5T-6" style="edgeStyle=orthogonalEdgeStyle;rounded=0;orthogonalLoop=1;jettySize=auto;html=1;entryX=0;entryY=0.5;entryDx=0;entryDy=0;fontColor=#FFFFFF;strokeColor=#66B2FF;" parent="Qy_aCqHIxHdt4xO_nR5T-1" source="Qy_aCqHIxHdt4xO_nR5T-8" target="Qy_aCqHIxHdt4xO_nR5T-14" edge="1">
          <mxGeometry relative="1" as="geometry" />
        </mxCell>
        <mxCell id="Qy_aCqHIxHdt4xO_nR5T-7" style="edgeStyle=orthogonalEdgeStyle;rounded=0;orthogonalLoop=1;jettySize=auto;html=1;entryX=0.5;entryY=1;entryDx=0;entryDy=0;fontColor=#000000;startArrow=none;startFill=0;strokeColor=#FFB570;exitX=0.5;exitY=0;exitDx=0;exitDy=0;" parent="Qy_aCqHIxHdt4xO_nR5T-1" source="Qy_aCqHIxHdt4xO_nR5T-14" target="Qy_aCqHIxHdt4xO_nR5T-10" edge="1">
          <mxGeometry relative="1" as="geometry" />
        </mxCell>
        <mxCell id="Qy_aCqHIxHdt4xO_nR5T-8" value="需求分配" style="rounded=0;whiteSpace=wrap;html=1;fillColor=#dae8fc;strokeColor=#6c8ebf;" parent="Qy_aCqHIxHdt4xO_nR5T-1" vertex="1">
          <mxGeometry x="220" y="660" width="80" height="40" as="geometry" />
        </mxCell>
        <mxCell id="Qy_aCqHIxHdt4xO_nR5T-10" value="需求分析&lt;br&gt;页面嵌套" style="rounded=0;whiteSpace=wrap;html=1;fillColor=#fff2cc;strokeColor=#d6b656;dashed=1;" parent="Qy_aCqHIxHdt4xO_nR5T-1" vertex="1">
          <mxGeometry x="340" y="600" width="80" height="40" as="geometry" />
        </mxCell>
        <mxCell id="Qy_aCqHIxHdt4xO_nR5T-11" style="edgeStyle=orthogonalEdgeStyle;rounded=0;orthogonalLoop=1;jettySize=auto;html=1;entryX=0.5;entryY=1;entryDx=0;entryDy=0;startArrow=classic;startFill=1;dashed=1;strokeColor=#FFB570;exitX=0.5;exitY=0;exitDx=0;exitDy=0;" parent="Qy_aCqHIxHdt4xO_nR5T-1" source="Qy_aCqHIxHdt4xO_nR5T-10" target="Qy_aCqHIxHdt4xO_nR5T-18" edge="1">
          <mxGeometry relative="1" as="geometry">
            <mxPoint x="380" y="560" as="sourcePoint" />
          </mxGeometry>
        </mxCell>
        <mxCell id="M3a8W5MNkOfFUybP-Qqz-0" value="写入需求&lt;br&gt;领域数据" style="edgeLabel;html=1;align=center;verticalAlign=middle;resizable=0;points=[];fontSize=10;fontColor=#000000;" parent="Qy_aCqHIxHdt4xO_nR5T-11" vertex="1" connectable="0">
          <mxGeometry x="0.1563" y="1" relative="1" as="geometry">
            <mxPoint x="1" y="-29" as="offset" />
          </mxGeometry>
        </mxCell>
        <mxCell id="Qy_aCqHIxHdt4xO_nR5T-13" value="" style="edgeStyle=orthogonalEdgeStyle;rounded=0;orthogonalLoop=1;jettySize=auto;html=1;fontSize=15;fontColor=#3399FF;strokeColor=#66B2FF;entryX=0;entryY=0.5;entryDx=0;entryDy=0;" parent="Qy_aCqHIxHdt4xO_nR5T-1" source="Qy_aCqHIxHdt4xO_nR5T-14" target="M3a8W5MNkOfFUybP-Qqz-7" edge="1">
          <mxGeometry relative="1" as="geometry" />
        </mxCell>
        <mxCell id="usYvlHKtMLSrLQLxD_r2-0" style="edgeStyle=orthogonalEdgeStyle;rounded=0;orthogonalLoop=1;jettySize=auto;html=1;entryX=0.5;entryY=1;entryDx=0;entryDy=0;fontColor=#000000;startArrow=none;startFill=0;strokeColor=#FFB570;" parent="Qy_aCqHIxHdt4xO_nR5T-1" source="usYvlHKtMLSrLQLxD_r2-1" target="Qy_aCqHIxHdt4xO_nR5T-17" edge="1">
          <mxGeometry relative="1" as="geometry">
            <Array as="points" />
          </mxGeometry>
        </mxCell>
        <mxCell id="usYvlHKtMLSrLQLxD_r2-3" style="edgeStyle=orthogonalEdgeStyle;rounded=0;orthogonalLoop=1;jettySize=auto;html=1;entryX=0.5;entryY=1;entryDx=0;entryDy=0;fontColor=#000000;startArrow=none;startFill=0;strokeColor=#66B2FF;dashed=1;" parent="Qy_aCqHIxHdt4xO_nR5T-1" source="Qy_aCqHIxHdt4xO_nR5T-14" target="usYvlHKtMLSrLQLxD_r2-1" edge="1">
          <mxGeometry relative="1" as="geometry">
            <Array as="points">
              <mxPoint x="480" y="670" />
            </Array>
          </mxGeometry>
        </mxCell>
        <mxCell id="Qy_aCqHIxHdt4xO_nR5T-14" value="需求分析" style="rounded=0;whiteSpace=wrap;html=1;fillColor=#dae8fc;strokeColor=#6c8ebf;" parent="Qy_aCqHIxHdt4xO_nR5T-1" vertex="1">
          <mxGeometry x="340" y="660" width="80" height="40" as="geometry" />
        </mxCell>
        <mxCell id="Qy_aCqHIxHdt4xO_nR5T-17" value="需求评审单&lt;br&gt;页面嵌套" style="rounded=0;whiteSpace=wrap;html=1;fillColor=#fff2cc;strokeColor=#d6b656;dashed=1;" parent="Qy_aCqHIxHdt4xO_nR5T-1" vertex="1">
          <mxGeometry x="440" y="550" width="80" height="40" as="geometry" />
        </mxCell>
        <mxCell id="usYvlHKtMLSrLQLxD_r2-4" style="edgeStyle=orthogonalEdgeStyle;rounded=0;orthogonalLoop=1;jettySize=auto;html=1;fontColor=#000000;startArrow=none;startFill=0;strokeColor=#EA6B66;" parent="Qy_aCqHIxHdt4xO_nR5T-1" source="Qy_aCqHIxHdt4xO_nR5T-18" target="Qy_aCqHIxHdt4xO_nR5T-20" edge="1">
          <mxGeometry relative="1" as="geometry" />
        </mxCell>
        <mxCell id="Qy_aCqHIxHdt4xO_nR5T-18" value="需求设计&lt;br&gt;（协同编写）" style="rounded=0;whiteSpace=wrap;html=1;fillColor=#fad9d5;strokeColor=#ae4132;" parent="Qy_aCqHIxHdt4xO_nR5T-1" vertex="1">
          <mxGeometry x="340" y="420" width="80" height="40" as="geometry" />
        </mxCell>
        <mxCell id="Qy_aCqHIxHdt4xO_nR5T-20" value="需求评审&lt;br&gt;（内部初审）" style="rounded=0;whiteSpace=wrap;html=1;fillColor=#f8cecc;strokeColor=#b85450;" parent="Qy_aCqHIxHdt4xO_nR5T-1" vertex="1">
          <mxGeometry x="440" y="420" width="80" height="40" as="geometry" />
        </mxCell>
        <mxCell id="Qy_aCqHIxHdt4xO_nR5T-23" value="开发/测试&lt;br&gt;设计" style="rounded=0;whiteSpace=wrap;html=1;fillColor=#f8cecc;strokeColor=#b85450;" parent="Qy_aCqHIxHdt4xO_nR5T-1" vertex="1">
          <mxGeometry x="640" y="420" width="80" height="40" as="geometry" />
        </mxCell>
        <mxCell id="Qy_aCqHIxHdt4xO_nR5T-24" style="edgeStyle=orthogonalEdgeStyle;rounded=0;orthogonalLoop=1;jettySize=auto;html=1;entryX=0;entryY=0.5;entryDx=0;entryDy=0;startArrow=none;startFill=0;strokeColor=#66B2FF;" parent="Qy_aCqHIxHdt4xO_nR5T-1" source="Qy_aCqHIxHdt4xO_nR5T-25" target="Qy_aCqHIxHdt4xO_nR5T-30" edge="1">
          <mxGeometry relative="1" as="geometry" />
        </mxCell>
        <mxCell id="Qy_aCqHIxHdt4xO_nR5T-25" value="开发中&lt;br&gt;（任务设计）" style="rounded=0;whiteSpace=wrap;html=1;fillColor=#dae8fc;strokeColor=#6c8ebf;" parent="Qy_aCqHIxHdt4xO_nR5T-1" vertex="1">
          <mxGeometry x="640" y="660" width="80" height="40" as="geometry" />
        </mxCell>
        <mxCell id="Qy_aCqHIxHdt4xO_nR5T-29" value="" style="edgeStyle=orthogonalEdgeStyle;rounded=0;orthogonalLoop=1;jettySize=auto;html=1;startArrow=none;startFill=0;strokeColor=#66B2FF;" parent="Qy_aCqHIxHdt4xO_nR5T-1" source="Qy_aCqHIxHdt4xO_nR5T-30" target="Qy_aCqHIxHdt4xO_nR5T-33" edge="1">
          <mxGeometry relative="1" as="geometry" />
        </mxCell>
        <mxCell id="Qy_aCqHIxHdt4xO_nR5T-30" value="…" style="rounded=0;whiteSpace=wrap;html=1;fillColor=#dae8fc;strokeColor=#6c8ebf;" parent="Qy_aCqHIxHdt4xO_nR5T-1" vertex="1">
          <mxGeometry x="750" y="670" width="40" height="20" as="geometry" />
        </mxCell>
        <mxCell id="Qy_aCqHIxHdt4xO_nR5T-31" style="edgeStyle=orthogonalEdgeStyle;rounded=0;orthogonalLoop=1;jettySize=auto;html=1;entryX=0.5;entryY=1;entryDx=0;entryDy=0;startArrow=none;startFill=0;strokeColor=#FFB570;dashed=1;" parent="Qy_aCqHIxHdt4xO_nR5T-1" source="Qy_aCqHIxHdt4xO_nR5T-33" target="Qy_aCqHIxHdt4xO_nR5T-34" edge="1">
          <mxGeometry relative="1" as="geometry" />
        </mxCell>
        <mxCell id="Qy_aCqHIxHdt4xO_nR5T-32" value="需求/开发/测试资产&lt;br style=&quot;font-size: 10px;&quot;&gt;分层分域入库" style="edgeLabel;html=1;align=center;verticalAlign=middle;resizable=0;points=[];fontSize=10;" parent="Qy_aCqHIxHdt4xO_nR5T-31" vertex="1" connectable="0">
          <mxGeometry x="-0.1256" y="-1" relative="1" as="geometry">
            <mxPoint x="-1" y="-80" as="offset" />
          </mxGeometry>
        </mxCell>
        <mxCell id="Qy_aCqHIxHdt4xO_nR5T-33" value="生产&lt;br&gt;已部署" style="ellipse;whiteSpace=wrap;html=1;aspect=fixed;fillColor=#dae8fc;strokeColor=#6c8ebf;" parent="Qy_aCqHIxHdt4xO_nR5T-1" vertex="1">
          <mxGeometry x="815" y="655" width="50" height="50" as="geometry" />
        </mxCell>
        <mxCell id="Qy_aCqHIxHdt4xO_nR5T-34" value="资产入库" style="rounded=0;whiteSpace=wrap;html=1;fillColor=#f8cecc;strokeColor=#b85450;" parent="Qy_aCqHIxHdt4xO_nR5T-1" vertex="1">
          <mxGeometry x="800" y="420" width="80" height="40" as="geometry" />
        </mxCell>
        <mxCell id="tqbH_qxMHAcFkv7FBMSe-0" style="edgeStyle=orthogonalEdgeStyle;rounded=0;orthogonalLoop=1;jettySize=auto;html=1;entryX=0.75;entryY=0;entryDx=0;entryDy=0;fontSize=11;fontColor=#000000;startArrow=none;startFill=0;strokeColor=#66B2FF;dashed=1;" parent="Qy_aCqHIxHdt4xO_nR5T-1" source="usYvlHKtMLSrLQLxD_r2-1" target="Qy_aCqHIxHdt4xO_nR5T-14" edge="1">
          <mxGeometry relative="1" as="geometry" />
        </mxCell>
        <mxCell id="usYvlHKtMLSrLQLxD_r2-1" value="需求评审单&lt;br&gt;（正式评审）" style="rounded=0;whiteSpace=wrap;html=1;fillColor=#dae8fc;strokeColor=#6c8ebf;" parent="Qy_aCqHIxHdt4xO_nR5T-1" vertex="1">
          <mxGeometry x="440" y="610" width="80" height="40" as="geometry" />
        </mxCell>
        <mxCell id="usYvlHKtMLSrLQLxD_r2-5" value="任务设计&lt;br&gt;页面嵌套" style="rounded=0;whiteSpace=wrap;html=1;fillColor=#fff2cc;strokeColor=#d6b656;dashed=1;" parent="Qy_aCqHIxHdt4xO_nR5T-1" vertex="1">
          <mxGeometry x="640" y="580" width="80" height="40" as="geometry" />
        </mxCell>
        <mxCell id="usYvlHKtMLSrLQLxD_r2-9" style="edgeStyle=orthogonalEdgeStyle;rounded=0;orthogonalLoop=1;jettySize=auto;html=1;entryX=0.5;entryY=1;entryDx=0;entryDy=0;fontColor=#000000;startArrow=none;startFill=0;strokeColor=#FFB570;exitX=0.5;exitY=0;exitDx=0;exitDy=0;" parent="Qy_aCqHIxHdt4xO_nR5T-1" source="Qy_aCqHIxHdt4xO_nR5T-25" target="usYvlHKtMLSrLQLxD_r2-5" edge="1">
          <mxGeometry relative="1" as="geometry">
            <mxPoint x="590" y="620" as="sourcePoint" />
            <mxPoint x="590" y="600" as="targetPoint" />
            <Array as="points" />
          </mxGeometry>
        </mxCell>
        <mxCell id="usYvlHKtMLSrLQLxD_r2-10" style="edgeStyle=orthogonalEdgeStyle;rounded=0;orthogonalLoop=1;jettySize=auto;html=1;entryX=0.5;entryY=1;entryDx=0;entryDy=0;startArrow=classic;startFill=1;dashed=1;strokeColor=#FFB570;exitX=0.5;exitY=0;exitDx=0;exitDy=0;" parent="Qy_aCqHIxHdt4xO_nR5T-1" source="usYvlHKtMLSrLQLxD_r2-5" target="Qy_aCqHIxHdt4xO_nR5T-23" edge="1">
          <mxGeometry relative="1" as="geometry">
            <mxPoint x="590" y="560" as="sourcePoint" />
            <mxPoint x="590" y="510" as="targetPoint" />
          </mxGeometry>
        </mxCell>
        <mxCell id="usYvlHKtMLSrLQLxD_r2-11" value="规范、模板&lt;br style=&quot;font-size: 10px;&quot;&gt;开发、测试任务设计" style="edgeLabel;html=1;align=center;verticalAlign=middle;resizable=0;points=[];fontColor=#000000;fontSize=10;" parent="usYvlHKtMLSrLQLxD_r2-10" vertex="1" connectable="0">
          <mxGeometry x="0.3214" y="1" relative="1" as="geometry">
            <mxPoint x="1" y="-11" as="offset" />
          </mxGeometry>
        </mxCell>
        <mxCell id="ftKwNafNRtfYSwFl9X4U-0" value="需求模板" style="rounded=0;whiteSpace=wrap;html=1;fillColor=#fad9d5;strokeColor=#ae4132;" parent="Qy_aCqHIxHdt4xO_nR5T-1" vertex="1">
          <mxGeometry x="340" y="360" width="80" height="40" as="geometry" />
        </mxCell>
        <mxCell id="ftKwNafNRtfYSwFl9X4U-1" style="edgeStyle=orthogonalEdgeStyle;rounded=0;orthogonalLoop=1;jettySize=auto;html=1;fontColor=#000000;startArrow=none;startFill=0;strokeColor=#EA6B66;exitX=0.5;exitY=1;exitDx=0;exitDy=0;entryX=0.5;entryY=0;entryDx=0;entryDy=0;" parent="Qy_aCqHIxHdt4xO_nR5T-1" source="ftKwNafNRtfYSwFl9X4U-0" target="Qy_aCqHIxHdt4xO_nR5T-18" edge="1">
          <mxGeometry relative="1" as="geometry">
            <mxPoint x="430" y="450" as="sourcePoint" />
            <mxPoint x="450" y="450" as="targetPoint" />
          </mxGeometry>
        </mxCell>
        <mxCell id="tqbH_qxMHAcFkv7FBMSe-1" value="需求评估" style="rounded=0;whiteSpace=wrap;html=1;fillColor=#f8cecc;strokeColor=#b85450;" parent="Qy_aCqHIxHdt4xO_nR5T-1" vertex="1">
          <mxGeometry x="440" y="360" width="80" height="40" as="geometry" />
        </mxCell>
        <mxCell id="M3a8W5MNkOfFUybP-Qqz-1" style="edgeStyle=orthogonalEdgeStyle;rounded=0;orthogonalLoop=1;jettySize=auto;html=1;entryX=0.5;entryY=1;entryDx=0;entryDy=0;startArrow=classic;startFill=1;dashed=1;strokeColor=#FFB570;exitX=0.5;exitY=0;exitDx=0;exitDy=0;" parent="Qy_aCqHIxHdt4xO_nR5T-1" source="Qy_aCqHIxHdt4xO_nR5T-17" target="Qy_aCqHIxHdt4xO_nR5T-20" edge="1">
          <mxGeometry relative="1" as="geometry">
            <mxPoint x="479.65999999999997" y="600" as="sourcePoint" />
            <mxPoint x="479.65999999999997" y="480" as="targetPoint" />
          </mxGeometry>
        </mxCell>
        <mxCell id="M3a8W5MNkOfFUybP-Qqz-2" value="读取需求&lt;br&gt;领域数据" style="edgeLabel;html=1;align=center;verticalAlign=middle;resizable=0;points=[];fontSize=10;fontColor=#000000;" parent="M3a8W5MNkOfFUybP-Qqz-1" vertex="1" connectable="0">
          <mxGeometry x="0.1563" y="1" relative="1" as="geometry">
            <mxPoint x="1" y="-8" as="offset" />
          </mxGeometry>
        </mxCell>
        <mxCell id="M3a8W5MNkOfFUybP-Qqz-4" style="edgeStyle=orthogonalEdgeStyle;rounded=0;orthogonalLoop=1;jettySize=auto;html=1;fontColor=#000000;startArrow=none;startFill=0;strokeColor=#EA6B66;exitX=0.5;exitY=0;exitDx=0;exitDy=0;" parent="Qy_aCqHIxHdt4xO_nR5T-1" source="Qy_aCqHIxHdt4xO_nR5T-20" edge="1">
          <mxGeometry relative="1" as="geometry">
            <mxPoint x="390" y="410" as="sourcePoint" />
            <mxPoint x="480" y="400" as="targetPoint" />
          </mxGeometry>
        </mxCell>
        <mxCell id="M3a8W5MNkOfFUybP-Qqz-5" value="需求拆分" style="rounded=0;whiteSpace=wrap;html=1;fillColor=#f8cecc;strokeColor=#b85450;" parent="Qy_aCqHIxHdt4xO_nR5T-1" vertex="1">
          <mxGeometry x="540" y="360" width="80" height="40" as="geometry" />
        </mxCell>
        <mxCell id="M3a8W5MNkOfFUybP-Qqz-6" style="edgeStyle=orthogonalEdgeStyle;rounded=0;orthogonalLoop=1;jettySize=auto;html=1;fontColor=#000000;startArrow=none;startFill=0;strokeColor=#EA6B66;entryX=0;entryY=0.5;entryDx=0;entryDy=0;exitX=1;exitY=0.5;exitDx=0;exitDy=0;" parent="Qy_aCqHIxHdt4xO_nR5T-1" source="tqbH_qxMHAcFkv7FBMSe-1" target="M3a8W5MNkOfFUybP-Qqz-5" edge="1">
          <mxGeometry relative="1" as="geometry">
            <mxPoint x="430" y="450" as="sourcePoint" />
            <mxPoint x="450" y="450" as="targetPoint" />
          </mxGeometry>
        </mxCell>
        <mxCell id="M3a8W5MNkOfFUybP-Qqz-7" value="开发中&lt;br&gt;（任务分配）" style="rounded=0;whiteSpace=wrap;html=1;fillColor=#dae8fc;strokeColor=#6c8ebf;" parent="Qy_aCqHIxHdt4xO_nR5T-1" vertex="1">
          <mxGeometry x="540" y="660" width="80" height="40" as="geometry" />
        </mxCell>
        <mxCell id="M3a8W5MNkOfFUybP-Qqz-9" value="任务分配&lt;br&gt;页面嵌套" style="rounded=0;whiteSpace=wrap;html=1;fillColor=#fff2cc;strokeColor=#d6b656;dashed=1;" parent="Qy_aCqHIxHdt4xO_nR5T-1" vertex="1">
          <mxGeometry x="540" y="580" width="80" height="40" as="geometry" />
        </mxCell>
        <mxCell id="M3a8W5MNkOfFUybP-Qqz-10" style="edgeStyle=orthogonalEdgeStyle;rounded=0;orthogonalLoop=1;jettySize=auto;html=1;entryX=0.5;entryY=1;entryDx=0;entryDy=0;fontColor=#000000;startArrow=none;startFill=0;strokeColor=#FFB570;" parent="Qy_aCqHIxHdt4xO_nR5T-1" target="M3a8W5MNkOfFUybP-Qqz-9" edge="1">
          <mxGeometry relative="1" as="geometry">
            <mxPoint x="580" y="660" as="sourcePoint" />
            <mxPoint x="690" y="630" as="targetPoint" />
            <Array as="points" />
          </mxGeometry>
        </mxCell>
        <mxCell id="M3a8W5MNkOfFUybP-Qqz-11" value="" style="edgeStyle=orthogonalEdgeStyle;rounded=0;orthogonalLoop=1;jettySize=auto;html=1;fontSize=15;fontColor=#3399FF;strokeColor=#66B2FF;entryX=0;entryY=0.5;entryDx=0;entryDy=0;" parent="Qy_aCqHIxHdt4xO_nR5T-1" target="Qy_aCqHIxHdt4xO_nR5T-25" edge="1">
          <mxGeometry relative="1" as="geometry">
            <mxPoint x="620" y="680" as="sourcePoint" />
            <mxPoint x="550" y="690" as="targetPoint" />
          </mxGeometry>
        </mxCell>
        <mxCell id="M3a8W5MNkOfFUybP-Qqz-13" style="edgeStyle=orthogonalEdgeStyle;rounded=0;orthogonalLoop=1;jettySize=auto;html=1;entryX=0.5;entryY=1;entryDx=0;entryDy=0;startArrow=classic;startFill=1;dashed=1;strokeColor=#FFB570;exitX=0.5;exitY=0;exitDx=0;exitDy=0;" parent="Qy_aCqHIxHdt4xO_nR5T-1" source="M3a8W5MNkOfFUybP-Qqz-9" target="M3a8W5MNkOfFUybP-Qqz-5" edge="1">
          <mxGeometry relative="1" as="geometry">
            <mxPoint x="490" y="560" as="sourcePoint" />
            <mxPoint x="490" y="470" as="targetPoint" />
          </mxGeometry>
        </mxCell>
        <mxCell id="M3a8W5MNkOfFUybP-Qqz-14" value="需求功能&lt;br&gt;拆分任务" style="edgeLabel;html=1;align=center;verticalAlign=middle;resizable=0;points=[];fontSize=10;fontColor=#000000;" parent="M3a8W5MNkOfFUybP-Qqz-13" vertex="1" connectable="0">
          <mxGeometry x="0.1563" y="1" relative="1" as="geometry">
            <mxPoint x="1" y="14" as="offset" />
          </mxGeometry>
        </mxCell>
      </root>
    </mxGraphModel>
  </diagram>
  <diagram name="需求结合流程V3" id="hJK3mvbxXuOlx8I_xcrk">
    <mxGraphModel dx="942" dy="737" grid="1" gridSize="10" guides="1" tooltips="1" connect="1" arrows="1" fold="1" page="1" pageScale="1" pageWidth="1169" pageHeight="827" background="none" math="0" shadow="0">
      <root>
        <mxCell id="JWkErthQ2AHGVzLwPtmk-0" />
        <mxCell id="JWkErthQ2AHGVzLwPtmk-1" parent="JWkErthQ2AHGVzLwPtmk-0" />
        <mxCell id="JWkErthQ2AHGVzLwPtmk-2" value="&lt;font style=&quot;font-size: 15px;&quot;&gt;&amp;nbsp; 多形态研发管理工具&lt;/font&gt;" style="rounded=0;whiteSpace=wrap;html=1;labelPosition=center;verticalLabelPosition=middle;align=left;verticalAlign=top;fontSize=15;fillColor=none;" parent="JWkErthQ2AHGVzLwPtmk-1" vertex="1">
          <mxGeometry x="220" y="530" width="680" height="190" as="geometry" />
        </mxCell>
        <mxCell id="JWkErthQ2AHGVzLwPtmk-3" value="&lt;font style=&quot;font-size: 15px;&quot;&gt;需求管理平台&lt;/font&gt;" style="rounded=0;whiteSpace=wrap;html=1;labelPosition=center;verticalLabelPosition=middle;align=center;verticalAlign=top;fontSize=15;fillColor=none;" parent="JWkErthQ2AHGVzLwPtmk-1" vertex="1">
          <mxGeometry x="220" y="380" width="680" height="130" as="geometry" />
        </mxCell>
        <mxCell id="JWkErthQ2AHGVzLwPtmk-4" value="" style="edgeStyle=orthogonalEdgeStyle;rounded=0;orthogonalLoop=1;jettySize=auto;html=1;strokeColor=#66B2FF;" parent="JWkErthQ2AHGVzLwPtmk-1" source="JWkErthQ2AHGVzLwPtmk-5" target="JWkErthQ2AHGVzLwPtmk-8" edge="1">
          <mxGeometry relative="1" as="geometry" />
        </mxCell>
        <mxCell id="JWkErthQ2AHGVzLwPtmk-5" value="新建&lt;br&gt;业务需求" style="rounded=0;whiteSpace=wrap;html=1;fillColor=#dae8fc;strokeColor=#6c8ebf;" parent="JWkErthQ2AHGVzLwPtmk-1" vertex="1">
          <mxGeometry x="240" y="600" width="80" height="40" as="geometry" />
        </mxCell>
        <mxCell id="JWkErthQ2AHGVzLwPtmk-6" style="edgeStyle=orthogonalEdgeStyle;rounded=0;orthogonalLoop=1;jettySize=auto;html=1;entryX=0;entryY=0.5;entryDx=0;entryDy=0;fontColor=#FFFFFF;strokeColor=#66B2FF;" parent="JWkErthQ2AHGVzLwPtmk-1" source="JWkErthQ2AHGVzLwPtmk-8" target="JWkErthQ2AHGVzLwPtmk-15" edge="1">
          <mxGeometry relative="1" as="geometry" />
        </mxCell>
        <mxCell id="JWkErthQ2AHGVzLwPtmk-7" style="edgeStyle=orthogonalEdgeStyle;rounded=0;orthogonalLoop=1;jettySize=auto;html=1;entryX=0.5;entryY=1;entryDx=0;entryDy=0;fontColor=#000000;startArrow=none;startFill=0;strokeColor=#FFB570;exitX=0.5;exitY=0;exitDx=0;exitDy=0;" parent="JWkErthQ2AHGVzLwPtmk-1" source="JWkErthQ2AHGVzLwPtmk-15" target="JWkErthQ2AHGVzLwPtmk-9" edge="1">
          <mxGeometry relative="1" as="geometry" />
        </mxCell>
        <mxCell id="JWkErthQ2AHGVzLwPtmk-8" value="需求分配" style="rounded=0;whiteSpace=wrap;html=1;fillColor=#dae8fc;strokeColor=#6c8ebf;" parent="JWkErthQ2AHGVzLwPtmk-1" vertex="1">
          <mxGeometry x="240" y="660" width="80" height="40" as="geometry" />
        </mxCell>
        <mxCell id="JWkErthQ2AHGVzLwPtmk-9" value="需求分析&lt;br&gt;页面嵌套" style="rounded=0;whiteSpace=wrap;html=1;fillColor=#fff2cc;strokeColor=#d6b656;dashed=1;" parent="JWkErthQ2AHGVzLwPtmk-1" vertex="1">
          <mxGeometry x="340" y="600" width="80" height="40" as="geometry" />
        </mxCell>
        <mxCell id="JWkErthQ2AHGVzLwPtmk-10" style="edgeStyle=orthogonalEdgeStyle;rounded=0;orthogonalLoop=1;jettySize=auto;html=1;entryX=0.5;entryY=1;entryDx=0;entryDy=0;startArrow=classic;startFill=1;dashed=1;strokeColor=#FFB570;exitX=0.5;exitY=0;exitDx=0;exitDy=0;" parent="JWkErthQ2AHGVzLwPtmk-1" source="JWkErthQ2AHGVzLwPtmk-9" target="JWkErthQ2AHGVzLwPtmk-18" edge="1">
          <mxGeometry relative="1" as="geometry">
            <mxPoint x="380" y="560" as="sourcePoint" />
          </mxGeometry>
        </mxCell>
        <mxCell id="JWkErthQ2AHGVzLwPtmk-11" value="写入需求&lt;br&gt;领域数据" style="edgeLabel;html=1;align=center;verticalAlign=middle;resizable=0;points=[];fontSize=10;fontColor=#000000;" parent="JWkErthQ2AHGVzLwPtmk-10" vertex="1" connectable="0">
          <mxGeometry x="0.1563" y="1" relative="1" as="geometry">
            <mxPoint x="1" y="-29" as="offset" />
          </mxGeometry>
        </mxCell>
        <mxCell id="JWkErthQ2AHGVzLwPtmk-12" value="" style="edgeStyle=orthogonalEdgeStyle;rounded=0;orthogonalLoop=1;jettySize=auto;html=1;fontSize=15;fontColor=#3399FF;strokeColor=#66B2FF;entryX=0;entryY=0.5;entryDx=0;entryDy=0;" parent="JWkErthQ2AHGVzLwPtmk-1" source="JWkErthQ2AHGVzLwPtmk-15" target="JWkErthQ2AHGVzLwPtmk-43" edge="1">
          <mxGeometry relative="1" as="geometry" />
        </mxCell>
        <mxCell id="JWkErthQ2AHGVzLwPtmk-13" style="edgeStyle=orthogonalEdgeStyle;rounded=0;orthogonalLoop=1;jettySize=auto;html=1;entryX=0.5;entryY=1;entryDx=0;entryDy=0;fontColor=#000000;startArrow=none;startFill=0;strokeColor=#FFB570;" parent="JWkErthQ2AHGVzLwPtmk-1" source="JWkErthQ2AHGVzLwPtmk-30" target="JWkErthQ2AHGVzLwPtmk-16" edge="1">
          <mxGeometry relative="1" as="geometry">
            <Array as="points" />
          </mxGeometry>
        </mxCell>
        <mxCell id="JWkErthQ2AHGVzLwPtmk-14" style="edgeStyle=orthogonalEdgeStyle;rounded=0;orthogonalLoop=1;jettySize=auto;html=1;entryX=0.5;entryY=1;entryDx=0;entryDy=0;fontColor=#000000;startArrow=none;startFill=0;strokeColor=#66B2FF;dashed=1;" parent="JWkErthQ2AHGVzLwPtmk-1" source="JWkErthQ2AHGVzLwPtmk-15" target="JWkErthQ2AHGVzLwPtmk-30" edge="1">
          <mxGeometry relative="1" as="geometry">
            <Array as="points">
              <mxPoint x="480" y="670" />
            </Array>
          </mxGeometry>
        </mxCell>
        <mxCell id="JWkErthQ2AHGVzLwPtmk-15" value="需求分析" style="rounded=0;whiteSpace=wrap;html=1;fillColor=#dae8fc;strokeColor=#6c8ebf;" parent="JWkErthQ2AHGVzLwPtmk-1" vertex="1">
          <mxGeometry x="340" y="660" width="80" height="40" as="geometry" />
        </mxCell>
        <mxCell id="JWkErthQ2AHGVzLwPtmk-16" value="需求评审单&lt;br&gt;页面嵌套" style="rounded=0;whiteSpace=wrap;html=1;fillColor=#fff2cc;strokeColor=#d6b656;dashed=1;" parent="JWkErthQ2AHGVzLwPtmk-1" vertex="1">
          <mxGeometry x="440" y="550" width="80" height="40" as="geometry" />
        </mxCell>
        <mxCell id="JWkErthQ2AHGVzLwPtmk-17" style="edgeStyle=orthogonalEdgeStyle;rounded=0;orthogonalLoop=1;jettySize=auto;html=1;fontColor=#000000;startArrow=none;startFill=0;strokeColor=#EA6B66;" parent="JWkErthQ2AHGVzLwPtmk-1" source="JWkErthQ2AHGVzLwPtmk-18" target="JWkErthQ2AHGVzLwPtmk-19" edge="1">
          <mxGeometry relative="1" as="geometry" />
        </mxCell>
        <mxCell id="JWkErthQ2AHGVzLwPtmk-18" value="需求设计&lt;br&gt;（协同编写）" style="rounded=0;whiteSpace=wrap;html=1;fillColor=#fad9d5;strokeColor=#ae4132;" parent="JWkErthQ2AHGVzLwPtmk-1" vertex="1">
          <mxGeometry x="340" y="420" width="80" height="40" as="geometry" />
        </mxCell>
        <mxCell id="JWkErthQ2AHGVzLwPtmk-19" value="需求评审&lt;br&gt;（内部初审）" style="rounded=0;whiteSpace=wrap;html=1;fillColor=#f8cecc;strokeColor=#b85450;" parent="JWkErthQ2AHGVzLwPtmk-1" vertex="1">
          <mxGeometry x="440" y="420" width="80" height="40" as="geometry" />
        </mxCell>
        <mxCell id="JWkErthQ2AHGVzLwPtmk-21" style="edgeStyle=orthogonalEdgeStyle;rounded=0;orthogonalLoop=1;jettySize=auto;html=1;entryX=0;entryY=0.5;entryDx=0;entryDy=0;startArrow=none;startFill=0;strokeColor=#66B2FF;" parent="JWkErthQ2AHGVzLwPtmk-1" source="JWkErthQ2AHGVzLwPtmk-22" target="JWkErthQ2AHGVzLwPtmk-24" edge="1">
          <mxGeometry relative="1" as="geometry" />
        </mxCell>
        <mxCell id="JWkErthQ2AHGVzLwPtmk-22" value="开发中&lt;br&gt;（任务设计）" style="rounded=0;whiteSpace=wrap;html=1;fillColor=#dae8fc;strokeColor=#6c8ebf;" parent="JWkErthQ2AHGVzLwPtmk-1" vertex="1">
          <mxGeometry x="640" y="660" width="80" height="40" as="geometry" />
        </mxCell>
        <mxCell id="JWkErthQ2AHGVzLwPtmk-23" value="" style="edgeStyle=orthogonalEdgeStyle;rounded=0;orthogonalLoop=1;jettySize=auto;html=1;startArrow=none;startFill=0;strokeColor=#66B2FF;" parent="JWkErthQ2AHGVzLwPtmk-1" source="JWkErthQ2AHGVzLwPtmk-24" target="JWkErthQ2AHGVzLwPtmk-27" edge="1">
          <mxGeometry relative="1" as="geometry" />
        </mxCell>
        <mxCell id="JWkErthQ2AHGVzLwPtmk-24" value="…" style="rounded=0;whiteSpace=wrap;html=1;fillColor=#dae8fc;strokeColor=#6c8ebf;" parent="JWkErthQ2AHGVzLwPtmk-1" vertex="1">
          <mxGeometry x="750" y="670" width="40" height="20" as="geometry" />
        </mxCell>
        <mxCell id="JWkErthQ2AHGVzLwPtmk-25" style="edgeStyle=orthogonalEdgeStyle;rounded=0;orthogonalLoop=1;jettySize=auto;html=1;entryX=0.5;entryY=1;entryDx=0;entryDy=0;startArrow=none;startFill=0;strokeColor=#FFB570;dashed=1;" parent="JWkErthQ2AHGVzLwPtmk-1" source="JWkErthQ2AHGVzLwPtmk-27" target="JWkErthQ2AHGVzLwPtmk-28" edge="1">
          <mxGeometry relative="1" as="geometry" />
        </mxCell>
        <mxCell id="JWkErthQ2AHGVzLwPtmk-26" value="需求资产&lt;br style=&quot;font-size: 10px;&quot;&gt;分层分域入库" style="edgeLabel;html=1;align=center;verticalAlign=middle;resizable=0;points=[];fontSize=10;" parent="JWkErthQ2AHGVzLwPtmk-25" vertex="1" connectable="0">
          <mxGeometry x="-0.1256" y="-1" relative="1" as="geometry">
            <mxPoint x="-1" y="-80" as="offset" />
          </mxGeometry>
        </mxCell>
        <mxCell id="JWkErthQ2AHGVzLwPtmk-27" value="生产&lt;br&gt;已部署" style="ellipse;whiteSpace=wrap;html=1;aspect=fixed;fillColor=#dae8fc;strokeColor=#6c8ebf;" parent="JWkErthQ2AHGVzLwPtmk-1" vertex="1">
          <mxGeometry x="815" y="655" width="50" height="50" as="geometry" />
        </mxCell>
        <mxCell id="JWkErthQ2AHGVzLwPtmk-28" value="资产入库" style="rounded=0;whiteSpace=wrap;html=1;fillColor=#f8cecc;strokeColor=#b85450;" parent="JWkErthQ2AHGVzLwPtmk-1" vertex="1">
          <mxGeometry x="800" y="420" width="80" height="40" as="geometry" />
        </mxCell>
        <mxCell id="JWkErthQ2AHGVzLwPtmk-29" style="edgeStyle=orthogonalEdgeStyle;rounded=0;orthogonalLoop=1;jettySize=auto;html=1;entryX=0.75;entryY=0;entryDx=0;entryDy=0;fontSize=11;fontColor=#000000;startArrow=none;startFill=0;strokeColor=#66B2FF;dashed=1;" parent="JWkErthQ2AHGVzLwPtmk-1" source="JWkErthQ2AHGVzLwPtmk-30" target="JWkErthQ2AHGVzLwPtmk-15" edge="1">
          <mxGeometry relative="1" as="geometry" />
        </mxCell>
        <mxCell id="JWkErthQ2AHGVzLwPtmk-30" value="需求评审单&lt;br&gt;（正式评审）" style="rounded=0;whiteSpace=wrap;html=1;fillColor=#dae8fc;strokeColor=#6c8ebf;" parent="JWkErthQ2AHGVzLwPtmk-1" vertex="1">
          <mxGeometry x="440" y="610" width="80" height="40" as="geometry" />
        </mxCell>
        <mxCell id="JWkErthQ2AHGVzLwPtmk-31" value="任务设计&lt;br&gt;页面嵌套" style="rounded=0;whiteSpace=wrap;html=1;fillColor=#d5e8d4;strokeColor=#82b366;dashed=1;" parent="JWkErthQ2AHGVzLwPtmk-1" vertex="1">
          <mxGeometry x="640" y="580" width="80" height="40" as="geometry" />
        </mxCell>
        <mxCell id="JWkErthQ2AHGVzLwPtmk-32" style="edgeStyle=orthogonalEdgeStyle;rounded=0;orthogonalLoop=1;jettySize=auto;html=1;entryX=0.5;entryY=1;entryDx=0;entryDy=0;fontColor=#000000;startArrow=none;startFill=0;strokeColor=#FFB570;exitX=0.5;exitY=0;exitDx=0;exitDy=0;" parent="JWkErthQ2AHGVzLwPtmk-1" source="JWkErthQ2AHGVzLwPtmk-22" target="JWkErthQ2AHGVzLwPtmk-31" edge="1">
          <mxGeometry relative="1" as="geometry">
            <mxPoint x="590" y="620" as="sourcePoint" />
            <mxPoint x="590" y="600" as="targetPoint" />
            <Array as="points" />
          </mxGeometry>
        </mxCell>
        <mxCell id="JWkErthQ2AHGVzLwPtmk-33" style="edgeStyle=orthogonalEdgeStyle;rounded=0;orthogonalLoop=1;jettySize=auto;html=1;startArrow=classic;startFill=1;dashed=1;strokeColor=#97D077;exitX=0.5;exitY=0;exitDx=0;exitDy=0;" parent="JWkErthQ2AHGVzLwPtmk-1" source="JWkErthQ2AHGVzLwPtmk-31" edge="1">
          <mxGeometry relative="1" as="geometry">
            <mxPoint x="590" y="560" as="sourcePoint" />
            <mxPoint x="680" y="523" as="targetPoint" />
          </mxGeometry>
        </mxCell>
        <mxCell id="JWkErthQ2AHGVzLwPtmk-34" value="调用文档结构化&lt;br&gt;工具能力" style="edgeLabel;html=1;align=center;verticalAlign=middle;resizable=0;points=[];fontColor=#000000;fontSize=10;" parent="JWkErthQ2AHGVzLwPtmk-33" vertex="1" connectable="0">
          <mxGeometry x="0.3214" y="1" relative="1" as="geometry">
            <mxPoint x="1" y="8" as="offset" />
          </mxGeometry>
        </mxCell>
        <mxCell id="JWkErthQ2AHGVzLwPtmk-35" value="需求模板" style="rounded=0;whiteSpace=wrap;html=1;fillColor=#fad9d5;strokeColor=#ae4132;" parent="JWkErthQ2AHGVzLwPtmk-1" vertex="1">
          <mxGeometry x="240" y="420" width="80" height="40" as="geometry" />
        </mxCell>
        <mxCell id="JWkErthQ2AHGVzLwPtmk-36" style="edgeStyle=orthogonalEdgeStyle;rounded=0;orthogonalLoop=1;jettySize=auto;html=1;fontColor=#000000;startArrow=none;startFill=0;strokeColor=#EA6B66;exitX=1;exitY=0.5;exitDx=0;exitDy=0;" parent="JWkErthQ2AHGVzLwPtmk-1" source="JWkErthQ2AHGVzLwPtmk-35" edge="1">
          <mxGeometry relative="1" as="geometry">
            <mxPoint x="430" y="450" as="sourcePoint" />
            <mxPoint x="340" y="440" as="targetPoint" />
          </mxGeometry>
        </mxCell>
        <mxCell id="JWkErthQ2AHGVzLwPtmk-37" value="需求发版" style="rounded=0;whiteSpace=wrap;html=1;fillColor=#f8cecc;strokeColor=#b85450;" parent="JWkErthQ2AHGVzLwPtmk-1" vertex="1">
          <mxGeometry x="540" y="420" width="80" height="40" as="geometry" />
        </mxCell>
        <mxCell id="JWkErthQ2AHGVzLwPtmk-38" style="edgeStyle=orthogonalEdgeStyle;rounded=0;orthogonalLoop=1;jettySize=auto;html=1;entryX=0.5;entryY=1;entryDx=0;entryDy=0;startArrow=classic;startFill=1;dashed=1;strokeColor=#FFB570;exitX=0.5;exitY=0;exitDx=0;exitDy=0;" parent="JWkErthQ2AHGVzLwPtmk-1" source="JWkErthQ2AHGVzLwPtmk-16" target="JWkErthQ2AHGVzLwPtmk-19" edge="1">
          <mxGeometry relative="1" as="geometry">
            <mxPoint x="479.65999999999997" y="600" as="sourcePoint" />
            <mxPoint x="479.65999999999997" y="480" as="targetPoint" />
          </mxGeometry>
        </mxCell>
        <mxCell id="JWkErthQ2AHGVzLwPtmk-39" value="读取需求&lt;br&gt;领域数据" style="edgeLabel;html=1;align=center;verticalAlign=middle;resizable=0;points=[];fontSize=10;fontColor=#000000;" parent="JWkErthQ2AHGVzLwPtmk-38" vertex="1" connectable="0">
          <mxGeometry x="0.1563" y="1" relative="1" as="geometry">
            <mxPoint x="1" y="-8" as="offset" />
          </mxGeometry>
        </mxCell>
        <mxCell id="JWkErthQ2AHGVzLwPtmk-40" style="edgeStyle=orthogonalEdgeStyle;rounded=0;orthogonalLoop=1;jettySize=auto;html=1;fontColor=#000000;startArrow=none;startFill=0;strokeColor=#EA6B66;exitX=1;exitY=0.5;exitDx=0;exitDy=0;entryX=0;entryY=0.5;entryDx=0;entryDy=0;" parent="JWkErthQ2AHGVzLwPtmk-1" source="JWkErthQ2AHGVzLwPtmk-19" target="JWkErthQ2AHGVzLwPtmk-37" edge="1">
          <mxGeometry relative="1" as="geometry">
            <mxPoint x="390" y="410" as="sourcePoint" />
            <mxPoint x="480" y="400" as="targetPoint" />
          </mxGeometry>
        </mxCell>
        <mxCell id="JWkErthQ2AHGVzLwPtmk-43" value="开发中&lt;br&gt;（任务分配）" style="rounded=0;whiteSpace=wrap;html=1;fillColor=#dae8fc;strokeColor=#6c8ebf;" parent="JWkErthQ2AHGVzLwPtmk-1" vertex="1">
          <mxGeometry x="540" y="660" width="80" height="40" as="geometry" />
        </mxCell>
        <mxCell id="JWkErthQ2AHGVzLwPtmk-46" value="" style="edgeStyle=orthogonalEdgeStyle;rounded=0;orthogonalLoop=1;jettySize=auto;html=1;fontSize=15;fontColor=#3399FF;strokeColor=#66B2FF;entryX=0;entryY=0.5;entryDx=0;entryDy=0;" parent="JWkErthQ2AHGVzLwPtmk-1" target="JWkErthQ2AHGVzLwPtmk-22" edge="1">
          <mxGeometry relative="1" as="geometry">
            <mxPoint x="620" y="680" as="sourcePoint" />
            <mxPoint x="550" y="690" as="targetPoint" />
          </mxGeometry>
        </mxCell>
        <mxCell id="ClMwEuo-aM5gAy4q8zC1-0" value="需求评估" style="rounded=0;whiteSpace=wrap;html=1;fillColor=#f8cecc;strokeColor=#b85450;" parent="JWkErthQ2AHGVzLwPtmk-1" vertex="1">
          <mxGeometry x="640" y="420" width="80" height="40" as="geometry" />
        </mxCell>
        <mxCell id="ClMwEuo-aM5gAy4q8zC1-2" style="edgeStyle=orthogonalEdgeStyle;rounded=0;orthogonalLoop=1;jettySize=auto;html=1;fontColor=#000000;startArrow=none;startFill=0;strokeColor=#EA6B66;exitX=1;exitY=0.5;exitDx=0;exitDy=0;entryX=0;entryY=0.5;entryDx=0;entryDy=0;" parent="JWkErthQ2AHGVzLwPtmk-1" source="JWkErthQ2AHGVzLwPtmk-37" target="ClMwEuo-aM5gAy4q8zC1-0" edge="1">
          <mxGeometry relative="1" as="geometry">
            <mxPoint x="530" y="450" as="sourcePoint" />
            <mxPoint x="550" y="450" as="targetPoint" />
          </mxGeometry>
        </mxCell>
      </root>
    </mxGraphModel>
  </diagram>
  <diagram name="开发流程" id="ElaPj8StLZwLCyzc7CDk">
    <mxGraphModel dx="942" dy="737" grid="0" gridSize="10" guides="1" tooltips="1" connect="1" arrows="1" fold="1" page="1" pageScale="1" pageWidth="1169" pageHeight="827" background="none" math="0" shadow="0">
      <root>
        <mxCell id="1j1Ty2nP6PFR6mSupMO_-0" />
        <mxCell id="1j1Ty2nP6PFR6mSupMO_-1" parent="1j1Ty2nP6PFR6mSupMO_-0" />
        <mxCell id="1j1Ty2nP6PFR6mSupMO_-2" value="&lt;font style=&quot;font-size: 15px;&quot;&gt;&amp;nbsp; 多形态研发管理工具&lt;/font&gt;" style="rounded=0;whiteSpace=wrap;html=1;labelPosition=center;verticalLabelPosition=middle;align=left;verticalAlign=top;fontSize=15;fillColor=none;" parent="1j1Ty2nP6PFR6mSupMO_-1" vertex="1">
          <mxGeometry x="220" y="550" width="670" height="170" as="geometry" />
        </mxCell>
        <mxCell id="1j1Ty2nP6PFR6mSupMO_-3" value="&lt;font style=&quot;font-size: 15px;&quot;&gt;研发文档管理工具&lt;/font&gt;" style="rounded=0;whiteSpace=wrap;html=1;labelPosition=center;verticalLabelPosition=middle;align=center;verticalAlign=top;fontSize=15;fillColor=none;" parent="1j1Ty2nP6PFR6mSupMO_-1" vertex="1">
          <mxGeometry x="320" y="400" width="570" height="130" as="geometry" />
        </mxCell>
        <mxCell id="1j1Ty2nP6PFR6mSupMO_-4" value="" style="edgeStyle=orthogonalEdgeStyle;rounded=0;orthogonalLoop=1;jettySize=auto;html=1;strokeColor=#66B2FF;" parent="1j1Ty2nP6PFR6mSupMO_-1" source="1j1Ty2nP6PFR6mSupMO_-5" target="1j1Ty2nP6PFR6mSupMO_-8" edge="1">
          <mxGeometry relative="1" as="geometry" />
        </mxCell>
        <mxCell id="1j1Ty2nP6PFR6mSupMO_-5" value="新建&lt;br&gt;开发任务" style="rounded=0;whiteSpace=wrap;html=1;fillColor=#dae8fc;strokeColor=#6c8ebf;" parent="1j1Ty2nP6PFR6mSupMO_-1" vertex="1">
          <mxGeometry x="240" y="600" width="80" height="40" as="geometry" />
        </mxCell>
        <mxCell id="1j1Ty2nP6PFR6mSupMO_-6" style="edgeStyle=orthogonalEdgeStyle;rounded=0;orthogonalLoop=1;jettySize=auto;html=1;entryX=0;entryY=0.5;entryDx=0;entryDy=0;fontColor=#FFFFFF;strokeColor=#66B2FF;" parent="1j1Ty2nP6PFR6mSupMO_-1" source="1j1Ty2nP6PFR6mSupMO_-8" target="1j1Ty2nP6PFR6mSupMO_-15" edge="1">
          <mxGeometry relative="1" as="geometry" />
        </mxCell>
        <mxCell id="1j1Ty2nP6PFR6mSupMO_-7" style="edgeStyle=orthogonalEdgeStyle;rounded=0;orthogonalLoop=1;jettySize=auto;html=1;entryX=0.5;entryY=1;entryDx=0;entryDy=0;fontColor=#000000;startArrow=none;startFill=0;strokeColor=#FFB570;exitX=0.5;exitY=0;exitDx=0;exitDy=0;" parent="1j1Ty2nP6PFR6mSupMO_-1" source="G6nve4OFykdG8uSBIJSs-0" target="1j1Ty2nP6PFR6mSupMO_-9" edge="1">
          <mxGeometry relative="1" as="geometry" />
        </mxCell>
        <mxCell id="1j1Ty2nP6PFR6mSupMO_-8" value="已提交" style="rounded=0;whiteSpace=wrap;html=1;fillColor=#dae8fc;strokeColor=#6c8ebf;" parent="1j1Ty2nP6PFR6mSupMO_-1" vertex="1">
          <mxGeometry x="240" y="660" width="80" height="40" as="geometry" />
        </mxCell>
        <mxCell id="1j1Ty2nP6PFR6mSupMO_-9" value="设计编写&lt;br&gt;页面嵌套" style="rounded=0;whiteSpace=wrap;html=1;fillColor=#fff2cc;strokeColor=#d6b656;dashed=1;" parent="1j1Ty2nP6PFR6mSupMO_-1" vertex="1">
          <mxGeometry x="440" y="600" width="80" height="40" as="geometry" />
        </mxCell>
        <mxCell id="1j1Ty2nP6PFR6mSupMO_-10" style="edgeStyle=orthogonalEdgeStyle;rounded=0;orthogonalLoop=1;jettySize=auto;html=1;entryX=0.5;entryY=1;entryDx=0;entryDy=0;startArrow=classic;startFill=1;dashed=1;strokeColor=#FFB570;exitX=0.5;exitY=0;exitDx=0;exitDy=0;" parent="1j1Ty2nP6PFR6mSupMO_-1" source="1j1Ty2nP6PFR6mSupMO_-9" target="1j1Ty2nP6PFR6mSupMO_-18" edge="1">
          <mxGeometry relative="1" as="geometry">
            <mxPoint x="380" y="560" as="sourcePoint" />
          </mxGeometry>
        </mxCell>
        <mxCell id="1j1Ty2nP6PFR6mSupMO_-11" value="写入开发&lt;br&gt;领域数据" style="edgeLabel;html=1;align=center;verticalAlign=middle;resizable=0;points=[];fontSize=10;fontColor=#000000;" parent="1j1Ty2nP6PFR6mSupMO_-10" vertex="1" connectable="0">
          <mxGeometry x="0.1563" y="1" relative="1" as="geometry">
            <mxPoint x="1" y="-29" as="offset" />
          </mxGeometry>
        </mxCell>
        <mxCell id="1j1Ty2nP6PFR6mSupMO_-13" style="edgeStyle=orthogonalEdgeStyle;rounded=0;orthogonalLoop=1;jettySize=auto;html=1;entryX=0.5;entryY=1;entryDx=0;entryDy=0;fontColor=#000000;startArrow=none;startFill=0;strokeColor=#FFB570;" parent="1j1Ty2nP6PFR6mSupMO_-1" source="1j1Ty2nP6PFR6mSupMO_-30" target="1j1Ty2nP6PFR6mSupMO_-16" edge="1">
          <mxGeometry relative="1" as="geometry">
            <Array as="points" />
          </mxGeometry>
        </mxCell>
        <mxCell id="GUPAkFtqh6S3qP3bLLrB-0" value="" style="edgeStyle=orthogonalEdgeStyle;rounded=0;orthogonalLoop=1;jettySize=auto;html=1;strokeColor=#66B2FF;" parent="1j1Ty2nP6PFR6mSupMO_-1" source="1j1Ty2nP6PFR6mSupMO_-15" target="G6nve4OFykdG8uSBIJSs-0" edge="1">
          <mxGeometry relative="1" as="geometry" />
        </mxCell>
        <mxCell id="1j1Ty2nP6PFR6mSupMO_-15" value="已分配" style="rounded=0;whiteSpace=wrap;html=1;fillColor=#dae8fc;strokeColor=#6c8ebf;" parent="1j1Ty2nP6PFR6mSupMO_-1" vertex="1">
          <mxGeometry x="340" y="660" width="80" height="40" as="geometry" />
        </mxCell>
        <mxCell id="1j1Ty2nP6PFR6mSupMO_-16" value="设计查看&lt;br&gt;页面嵌套" style="rounded=0;whiteSpace=wrap;html=1;fillColor=#fff2cc;strokeColor=#d6b656;dashed=1;" parent="1j1Ty2nP6PFR6mSupMO_-1" vertex="1">
          <mxGeometry x="540" y="600" width="80" height="40" as="geometry" />
        </mxCell>
        <mxCell id="1j1Ty2nP6PFR6mSupMO_-17" style="edgeStyle=orthogonalEdgeStyle;rounded=0;orthogonalLoop=1;jettySize=auto;html=1;fontColor=#000000;startArrow=none;startFill=0;strokeColor=#EA6B66;" parent="1j1Ty2nP6PFR6mSupMO_-1" source="1j1Ty2nP6PFR6mSupMO_-18" target="1j1Ty2nP6PFR6mSupMO_-19" edge="1">
          <mxGeometry relative="1" as="geometry" />
        </mxCell>
        <mxCell id="1j1Ty2nP6PFR6mSupMO_-18" value="开发设计" style="rounded=0;whiteSpace=wrap;html=1;fillColor=#fad9d5;strokeColor=#ae4132;" parent="1j1Ty2nP6PFR6mSupMO_-1" vertex="1">
          <mxGeometry x="440" y="440" width="80" height="40" as="geometry" />
        </mxCell>
        <mxCell id="E7OE8afrs-f-c31BgWSk-3" style="edgeStyle=orthogonalEdgeStyle;rounded=0;orthogonalLoop=1;jettySize=auto;html=1;strokeColor=#EA6B66;" parent="1j1Ty2nP6PFR6mSupMO_-1" source="1j1Ty2nP6PFR6mSupMO_-19" target="E7OE8afrs-f-c31BgWSk-2" edge="1">
          <mxGeometry relative="1" as="geometry" />
        </mxCell>
        <mxCell id="1j1Ty2nP6PFR6mSupMO_-19" value="设计评审" style="rounded=0;whiteSpace=wrap;html=1;fillColor=#f8cecc;strokeColor=#b85450;" parent="1j1Ty2nP6PFR6mSupMO_-1" vertex="1">
          <mxGeometry x="540" y="440" width="80" height="40" as="geometry" />
        </mxCell>
        <mxCell id="UVr8YaIQlyT1zyAJ-Urp-0" value="" style="edgeStyle=orthogonalEdgeStyle;rounded=0;orthogonalLoop=1;jettySize=auto;html=1;strokeColor=#66B2FF;" parent="1j1Ty2nP6PFR6mSupMO_-1" source="1j1Ty2nP6PFR6mSupMO_-24" target="1j1Ty2nP6PFR6mSupMO_-27" edge="1">
          <mxGeometry relative="1" as="geometry" />
        </mxCell>
        <mxCell id="1j1Ty2nP6PFR6mSupMO_-24" value="…" style="rounded=0;whiteSpace=wrap;html=1;fillColor=#dae8fc;strokeColor=#6c8ebf;" parent="1j1Ty2nP6PFR6mSupMO_-1" vertex="1">
          <mxGeometry x="740" y="670" width="40" height="20" as="geometry" />
        </mxCell>
        <mxCell id="1j1Ty2nP6PFR6mSupMO_-28" value="资产入库" style="rounded=0;whiteSpace=wrap;html=1;fillColor=#f8cecc;strokeColor=#b85450;" parent="1j1Ty2nP6PFR6mSupMO_-1" vertex="1">
          <mxGeometry x="785" y="440" width="80" height="40" as="geometry" />
        </mxCell>
        <mxCell id="0_PKbFbhMdGJ1m6-hQwc-0" style="edgeStyle=orthogonalEdgeStyle;rounded=0;orthogonalLoop=1;jettySize=auto;html=1;entryX=0;entryY=0.5;entryDx=0;entryDy=0;strokeColor=#66B2FF;" parent="1j1Ty2nP6PFR6mSupMO_-1" source="1j1Ty2nP6PFR6mSupMO_-30" target="1j1Ty2nP6PFR6mSupMO_-43" edge="1">
          <mxGeometry relative="1" as="geometry" />
        </mxCell>
        <mxCell id="1j1Ty2nP6PFR6mSupMO_-30" value="已设计评审" style="rounded=0;whiteSpace=wrap;html=1;fillColor=#dae8fc;strokeColor=#6c8ebf;" parent="1j1Ty2nP6PFR6mSupMO_-1" vertex="1">
          <mxGeometry x="540" y="660" width="80" height="40" as="geometry" />
        </mxCell>
        <mxCell id="1j1Ty2nP6PFR6mSupMO_-35" value="设计模板" style="rounded=0;whiteSpace=wrap;html=1;fillColor=#fad9d5;strokeColor=#ae4132;" parent="1j1Ty2nP6PFR6mSupMO_-1" vertex="1">
          <mxGeometry x="340" y="440" width="80" height="40" as="geometry" />
        </mxCell>
        <mxCell id="1j1Ty2nP6PFR6mSupMO_-36" style="edgeStyle=orthogonalEdgeStyle;rounded=0;orthogonalLoop=1;jettySize=auto;html=1;fontColor=#000000;startArrow=none;startFill=0;strokeColor=#EA6B66;exitX=1;exitY=0.5;exitDx=0;exitDy=0;" parent="1j1Ty2nP6PFR6mSupMO_-1" source="1j1Ty2nP6PFR6mSupMO_-35" edge="1">
          <mxGeometry relative="1" as="geometry">
            <mxPoint x="430" y="470" as="sourcePoint" />
            <mxPoint x="440" y="460" as="targetPoint" />
          </mxGeometry>
        </mxCell>
        <mxCell id="1j1Ty2nP6PFR6mSupMO_-38" style="edgeStyle=orthogonalEdgeStyle;rounded=0;orthogonalLoop=1;jettySize=auto;html=1;entryX=0.5;entryY=1;entryDx=0;entryDy=0;startArrow=classic;startFill=1;dashed=1;strokeColor=#FFB570;exitX=0.5;exitY=0;exitDx=0;exitDy=0;" parent="1j1Ty2nP6PFR6mSupMO_-1" source="1j1Ty2nP6PFR6mSupMO_-16" target="1j1Ty2nP6PFR6mSupMO_-19" edge="1">
          <mxGeometry relative="1" as="geometry">
            <mxPoint x="479.65999999999997" y="600" as="sourcePoint" />
            <mxPoint x="479.65999999999997" y="480" as="targetPoint" />
          </mxGeometry>
        </mxCell>
        <mxCell id="1j1Ty2nP6PFR6mSupMO_-39" value="读取开发&lt;br&gt;领域数据" style="edgeLabel;html=1;align=center;verticalAlign=middle;resizable=0;points=[];fontSize=10;fontColor=#000000;" parent="1j1Ty2nP6PFR6mSupMO_-38" vertex="1" connectable="0">
          <mxGeometry x="0.1563" y="1" relative="1" as="geometry">
            <mxPoint x="1" y="-29" as="offset" />
          </mxGeometry>
        </mxCell>
        <mxCell id="1j1Ty2nP6PFR6mSupMO_-43" value="开发完成" style="rounded=0;whiteSpace=wrap;html=1;fillColor=#dae8fc;strokeColor=#6c8ebf;" parent="1j1Ty2nP6PFR6mSupMO_-1" vertex="1">
          <mxGeometry x="640" y="660" width="80" height="40" as="geometry" />
        </mxCell>
        <mxCell id="1j1Ty2nP6PFR6mSupMO_-44" value="设计查看&lt;br&gt;页面嵌套" style="rounded=0;whiteSpace=wrap;html=1;fillColor=#fff2cc;strokeColor=#d6b656;dashed=1;" parent="1j1Ty2nP6PFR6mSupMO_-1" vertex="1">
          <mxGeometry x="640" y="600" width="80" height="40" as="geometry" />
        </mxCell>
        <mxCell id="1j1Ty2nP6PFR6mSupMO_-45" style="edgeStyle=orthogonalEdgeStyle;rounded=0;orthogonalLoop=1;jettySize=auto;html=1;entryX=0.5;entryY=1;entryDx=0;entryDy=0;fontColor=#000000;startArrow=none;startFill=0;strokeColor=#FFB570;" parent="1j1Ty2nP6PFR6mSupMO_-1" target="1j1Ty2nP6PFR6mSupMO_-44" edge="1">
          <mxGeometry relative="1" as="geometry">
            <mxPoint x="680" y="660" as="sourcePoint" />
            <mxPoint x="790" y="630" as="targetPoint" />
            <Array as="points" />
          </mxGeometry>
        </mxCell>
        <mxCell id="1j1Ty2nP6PFR6mSupMO_-46" value="" style="edgeStyle=orthogonalEdgeStyle;rounded=0;orthogonalLoop=1;jettySize=auto;html=1;fontSize=15;fontColor=#3399FF;strokeColor=#66B2FF;entryX=0;entryY=0.5;entryDx=0;entryDy=0;" parent="1j1Ty2nP6PFR6mSupMO_-1" target="1j1Ty2nP6PFR6mSupMO_-24" edge="1">
          <mxGeometry relative="1" as="geometry">
            <mxPoint x="720" y="680" as="sourcePoint" />
            <mxPoint x="740" y="680" as="targetPoint" />
          </mxGeometry>
        </mxCell>
        <mxCell id="GUPAkFtqh6S3qP3bLLrB-1" style="edgeStyle=orthogonalEdgeStyle;rounded=0;orthogonalLoop=1;jettySize=auto;html=1;strokeColor=#66B2FF;" parent="1j1Ty2nP6PFR6mSupMO_-1" source="G6nve4OFykdG8uSBIJSs-0" target="1j1Ty2nP6PFR6mSupMO_-30" edge="1">
          <mxGeometry relative="1" as="geometry" />
        </mxCell>
        <mxCell id="G6nve4OFykdG8uSBIJSs-0" value="已设计" style="rounded=0;whiteSpace=wrap;html=1;fillColor=#dae8fc;strokeColor=#6c8ebf;" parent="1j1Ty2nP6PFR6mSupMO_-1" vertex="1">
          <mxGeometry x="440" y="660" width="80" height="40" as="geometry" />
        </mxCell>
        <mxCell id="1j1Ty2nP6PFR6mSupMO_-27" value="生产&lt;br&gt;已部署" style="ellipse;whiteSpace=wrap;html=1;aspect=fixed;fillColor=#dae8fc;strokeColor=#6c8ebf;" parent="1j1Ty2nP6PFR6mSupMO_-1" vertex="1">
          <mxGeometry x="800" y="655" width="50" height="50" as="geometry" />
        </mxCell>
        <mxCell id="1Vp04hao-Vot3U-0USlr-0" style="edgeStyle=orthogonalEdgeStyle;rounded=0;orthogonalLoop=1;jettySize=auto;html=1;entryX=0.5;entryY=1;entryDx=0;entryDy=0;startArrow=classic;startFill=1;dashed=1;strokeColor=#FFB570;" parent="1j1Ty2nP6PFR6mSupMO_-1" source="1j1Ty2nP6PFR6mSupMO_-27" target="1j1Ty2nP6PFR6mSupMO_-28" edge="1">
          <mxGeometry relative="1" as="geometry">
            <mxPoint x="815" y="610" as="sourcePoint" />
            <mxPoint x="815" y="470" as="targetPoint" />
          </mxGeometry>
        </mxCell>
        <mxCell id="1Vp04hao-Vot3U-0USlr-1" value="自动触发&lt;br&gt;资产入库" style="edgeLabel;html=1;align=center;verticalAlign=middle;resizable=0;points=[];fontColor=#000000;fontSize=10;" parent="1Vp04hao-Vot3U-0USlr-0" vertex="1" connectable="0">
          <mxGeometry x="0.3214" y="1" relative="1" as="geometry">
            <mxPoint x="1" y="-36" as="offset" />
          </mxGeometry>
        </mxCell>
        <mxCell id="E7OE8afrs-f-c31BgWSk-2" value="查看设计" style="rounded=0;whiteSpace=wrap;html=1;fillColor=#f8cecc;strokeColor=#b85450;" parent="1j1Ty2nP6PFR6mSupMO_-1" vertex="1">
          <mxGeometry x="640" y="440" width="80" height="40" as="geometry" />
        </mxCell>
        <mxCell id="E7OE8afrs-f-c31BgWSk-4" style="edgeStyle=orthogonalEdgeStyle;rounded=0;orthogonalLoop=1;jettySize=auto;html=1;startArrow=classic;startFill=1;dashed=1;strokeColor=#FFB570;" parent="1j1Ty2nP6PFR6mSupMO_-1" source="1j1Ty2nP6PFR6mSupMO_-44" target="E7OE8afrs-f-c31BgWSk-2" edge="1">
          <mxGeometry relative="1" as="geometry">
            <mxPoint x="590" y="610" as="sourcePoint" />
            <mxPoint x="590" y="490" as="targetPoint" />
          </mxGeometry>
        </mxCell>
        <mxCell id="E7OE8afrs-f-c31BgWSk-5" value="读取开发&lt;br&gt;领域数据" style="edgeLabel;html=1;align=center;verticalAlign=middle;resizable=0;points=[];fontSize=10;fontColor=#000000;" parent="E7OE8afrs-f-c31BgWSk-4" vertex="1" connectable="0">
          <mxGeometry x="0.1563" y="1" relative="1" as="geometry">
            <mxPoint x="1" y="-29" as="offset" />
          </mxGeometry>
        </mxCell>
      </root>
    </mxGraphModel>
  </diagram>
  <diagram name="测试流程" id="Q042iWnOj_KQi3E_Wy5U">
    <mxGraphModel dx="942" dy="737" grid="0" gridSize="10" guides="1" tooltips="1" connect="1" arrows="1" fold="1" page="1" pageScale="1" pageWidth="1169" pageHeight="827" background="none" math="0" shadow="0">
      <root>
        <mxCell id="W0MKTiDh_IUzFeJurTNY-0" />
        <mxCell id="W0MKTiDh_IUzFeJurTNY-1" parent="W0MKTiDh_IUzFeJurTNY-0" />
        <mxCell id="W0MKTiDh_IUzFeJurTNY-2" value="&lt;font style=&quot;font-size: 15px;&quot;&gt;&amp;nbsp; 多形态研发管理工具&lt;/font&gt;" style="rounded=0;whiteSpace=wrap;html=1;labelPosition=center;verticalLabelPosition=middle;align=left;verticalAlign=top;fontSize=15;fillColor=none;" parent="W0MKTiDh_IUzFeJurTNY-1" vertex="1">
          <mxGeometry x="220" y="550" width="670" height="170" as="geometry" />
        </mxCell>
        <mxCell id="W0MKTiDh_IUzFeJurTNY-3" value="&lt;font style=&quot;font-size: 15px;&quot;&gt;研发文档管理工具&lt;/font&gt;" style="rounded=0;whiteSpace=wrap;html=1;labelPosition=center;verticalLabelPosition=middle;align=center;verticalAlign=top;fontSize=15;fillColor=none;" parent="W0MKTiDh_IUzFeJurTNY-1" vertex="1">
          <mxGeometry x="320" y="400" width="570" height="130" as="geometry" />
        </mxCell>
        <mxCell id="W0MKTiDh_IUzFeJurTNY-4" value="" style="edgeStyle=orthogonalEdgeStyle;rounded=0;orthogonalLoop=1;jettySize=auto;html=1;strokeColor=#66B2FF;" parent="W0MKTiDh_IUzFeJurTNY-1" source="W0MKTiDh_IUzFeJurTNY-5" target="W0MKTiDh_IUzFeJurTNY-8" edge="1">
          <mxGeometry relative="1" as="geometry" />
        </mxCell>
        <mxCell id="W0MKTiDh_IUzFeJurTNY-5" value="新建&lt;br&gt;测试任务" style="rounded=0;whiteSpace=wrap;html=1;fillColor=#dae8fc;strokeColor=#6c8ebf;" parent="W0MKTiDh_IUzFeJurTNY-1" vertex="1">
          <mxGeometry x="240" y="600" width="80" height="40" as="geometry" />
        </mxCell>
        <mxCell id="W0MKTiDh_IUzFeJurTNY-6" style="edgeStyle=orthogonalEdgeStyle;rounded=0;orthogonalLoop=1;jettySize=auto;html=1;entryX=0;entryY=0.5;entryDx=0;entryDy=0;fontColor=#FFFFFF;strokeColor=#66B2FF;" parent="W0MKTiDh_IUzFeJurTNY-1" source="W0MKTiDh_IUzFeJurTNY-8" target="W0MKTiDh_IUzFeJurTNY-14" edge="1">
          <mxGeometry relative="1" as="geometry" />
        </mxCell>
        <mxCell id="W0MKTiDh_IUzFeJurTNY-7" style="edgeStyle=orthogonalEdgeStyle;rounded=0;orthogonalLoop=1;jettySize=auto;html=1;entryX=0.5;entryY=1;entryDx=0;entryDy=0;fontColor=#000000;startArrow=none;startFill=0;strokeColor=#FFB570;exitX=0.5;exitY=0;exitDx=0;exitDy=0;" parent="W0MKTiDh_IUzFeJurTNY-1" source="W0MKTiDh_IUzFeJurTNY-34" target="W0MKTiDh_IUzFeJurTNY-9" edge="1">
          <mxGeometry relative="1" as="geometry" />
        </mxCell>
        <mxCell id="W0MKTiDh_IUzFeJurTNY-8" value="已提交" style="rounded=0;whiteSpace=wrap;html=1;fillColor=#dae8fc;strokeColor=#6c8ebf;" parent="W0MKTiDh_IUzFeJurTNY-1" vertex="1">
          <mxGeometry x="240" y="660" width="80" height="40" as="geometry" />
        </mxCell>
        <mxCell id="W0MKTiDh_IUzFeJurTNY-9" value="用例编写&lt;br&gt;页面嵌套" style="rounded=0;whiteSpace=wrap;html=1;fillColor=#fff2cc;strokeColor=#d6b656;dashed=1;" parent="W0MKTiDh_IUzFeJurTNY-1" vertex="1">
          <mxGeometry x="440" y="600" width="80" height="40" as="geometry" />
        </mxCell>
        <mxCell id="W0MKTiDh_IUzFeJurTNY-10" style="edgeStyle=orthogonalEdgeStyle;rounded=0;orthogonalLoop=1;jettySize=auto;html=1;entryX=0.5;entryY=1;entryDx=0;entryDy=0;startArrow=classic;startFill=1;dashed=1;strokeColor=#FFB570;exitX=0.5;exitY=0;exitDx=0;exitDy=0;" parent="W0MKTiDh_IUzFeJurTNY-1" source="W0MKTiDh_IUzFeJurTNY-9" target="W0MKTiDh_IUzFeJurTNY-17" edge="1">
          <mxGeometry relative="1" as="geometry">
            <mxPoint x="380" y="560" as="sourcePoint" />
          </mxGeometry>
        </mxCell>
        <mxCell id="W0MKTiDh_IUzFeJurTNY-11" value="写入测试&lt;br&gt;领域数据" style="edgeLabel;html=1;align=center;verticalAlign=middle;resizable=0;points=[];fontSize=10;fontColor=#000000;" parent="W0MKTiDh_IUzFeJurTNY-10" vertex="1" connectable="0">
          <mxGeometry x="0.1563" y="1" relative="1" as="geometry">
            <mxPoint x="1" y="-29" as="offset" />
          </mxGeometry>
        </mxCell>
        <mxCell id="W0MKTiDh_IUzFeJurTNY-12" style="edgeStyle=orthogonalEdgeStyle;rounded=0;orthogonalLoop=1;jettySize=auto;html=1;entryX=0.5;entryY=1;entryDx=0;entryDy=0;fontColor=#000000;startArrow=none;startFill=0;strokeColor=#FFB570;" parent="W0MKTiDh_IUzFeJurTNY-1" source="W0MKTiDh_IUzFeJurTNY-24" target="W0MKTiDh_IUzFeJurTNY-15" edge="1">
          <mxGeometry relative="1" as="geometry">
            <Array as="points" />
          </mxGeometry>
        </mxCell>
        <mxCell id="W0MKTiDh_IUzFeJurTNY-13" value="" style="edgeStyle=orthogonalEdgeStyle;rounded=0;orthogonalLoop=1;jettySize=auto;html=1;strokeColor=#66B2FF;" parent="W0MKTiDh_IUzFeJurTNY-1" source="W0MKTiDh_IUzFeJurTNY-14" target="W0MKTiDh_IUzFeJurTNY-34" edge="1">
          <mxGeometry relative="1" as="geometry" />
        </mxCell>
        <mxCell id="W0MKTiDh_IUzFeJurTNY-14" value="已分配" style="rounded=0;whiteSpace=wrap;html=1;fillColor=#dae8fc;strokeColor=#6c8ebf;" parent="W0MKTiDh_IUzFeJurTNY-1" vertex="1">
          <mxGeometry x="340" y="660" width="80" height="40" as="geometry" />
        </mxCell>
        <mxCell id="W0MKTiDh_IUzFeJurTNY-15" value="用例查看&lt;br&gt;页面嵌套" style="rounded=0;whiteSpace=wrap;html=1;fillColor=#fff2cc;strokeColor=#d6b656;dashed=1;" parent="W0MKTiDh_IUzFeJurTNY-1" vertex="1">
          <mxGeometry x="540" y="600" width="80" height="40" as="geometry" />
        </mxCell>
        <mxCell id="W0MKTiDh_IUzFeJurTNY-16" style="edgeStyle=orthogonalEdgeStyle;rounded=0;orthogonalLoop=1;jettySize=auto;html=1;fontColor=#000000;startArrow=none;startFill=0;strokeColor=#EA6B66;" parent="W0MKTiDh_IUzFeJurTNY-1" source="W0MKTiDh_IUzFeJurTNY-17" target="W0MKTiDh_IUzFeJurTNY-19" edge="1">
          <mxGeometry relative="1" as="geometry" />
        </mxCell>
        <mxCell id="W0MKTiDh_IUzFeJurTNY-17" value="测试用例&lt;br&gt;设计" style="rounded=0;whiteSpace=wrap;html=1;fillColor=#fad9d5;strokeColor=#ae4132;" parent="W0MKTiDh_IUzFeJurTNY-1" vertex="1">
          <mxGeometry x="440" y="440" width="80" height="40" as="geometry" />
        </mxCell>
        <mxCell id="W0MKTiDh_IUzFeJurTNY-18" style="edgeStyle=orthogonalEdgeStyle;rounded=0;orthogonalLoop=1;jettySize=auto;html=1;strokeColor=#EA6B66;" parent="W0MKTiDh_IUzFeJurTNY-1" source="W0MKTiDh_IUzFeJurTNY-19" target="W0MKTiDh_IUzFeJurTNY-38" edge="1">
          <mxGeometry relative="1" as="geometry" />
        </mxCell>
        <mxCell id="W0MKTiDh_IUzFeJurTNY-19" value="测试用例&lt;br&gt;评审" style="rounded=0;whiteSpace=wrap;html=1;fillColor=#f8cecc;strokeColor=#b85450;" parent="W0MKTiDh_IUzFeJurTNY-1" vertex="1">
          <mxGeometry x="540" y="440" width="80" height="40" as="geometry" />
        </mxCell>
        <mxCell id="W0MKTiDh_IUzFeJurTNY-20" value="" style="edgeStyle=orthogonalEdgeStyle;rounded=0;orthogonalLoop=1;jettySize=auto;html=1;strokeColor=#66B2FF;" parent="W0MKTiDh_IUzFeJurTNY-1" source="W0MKTiDh_IUzFeJurTNY-21" target="W0MKTiDh_IUzFeJurTNY-35" edge="1">
          <mxGeometry relative="1" as="geometry" />
        </mxCell>
        <mxCell id="W0MKTiDh_IUzFeJurTNY-21" value="…" style="rounded=0;whiteSpace=wrap;html=1;fillColor=#dae8fc;strokeColor=#6c8ebf;" parent="W0MKTiDh_IUzFeJurTNY-1" vertex="1">
          <mxGeometry x="740" y="670" width="40" height="20" as="geometry" />
        </mxCell>
        <mxCell id="W0MKTiDh_IUzFeJurTNY-22" value="资产入库" style="rounded=0;whiteSpace=wrap;html=1;fillColor=#f8cecc;strokeColor=#b85450;" parent="W0MKTiDh_IUzFeJurTNY-1" vertex="1">
          <mxGeometry x="785" y="440" width="80" height="40" as="geometry" />
        </mxCell>
        <mxCell id="W0MKTiDh_IUzFeJurTNY-23" style="edgeStyle=orthogonalEdgeStyle;rounded=0;orthogonalLoop=1;jettySize=auto;html=1;entryX=0;entryY=0.5;entryDx=0;entryDy=0;strokeColor=#66B2FF;" parent="W0MKTiDh_IUzFeJurTNY-1" source="W0MKTiDh_IUzFeJurTNY-24" target="W0MKTiDh_IUzFeJurTNY-29" edge="1">
          <mxGeometry relative="1" as="geometry" />
        </mxCell>
        <mxCell id="W0MKTiDh_IUzFeJurTNY-24" value="用例已评审" style="rounded=0;whiteSpace=wrap;html=1;fillColor=#dae8fc;strokeColor=#6c8ebf;" parent="W0MKTiDh_IUzFeJurTNY-1" vertex="1">
          <mxGeometry x="540" y="660" width="80" height="40" as="geometry" />
        </mxCell>
        <mxCell id="W0MKTiDh_IUzFeJurTNY-25" value="测试用例&lt;br&gt;模板" style="rounded=0;whiteSpace=wrap;html=1;fillColor=#fad9d5;strokeColor=#ae4132;" parent="W0MKTiDh_IUzFeJurTNY-1" vertex="1">
          <mxGeometry x="340" y="440" width="80" height="40" as="geometry" />
        </mxCell>
        <mxCell id="W0MKTiDh_IUzFeJurTNY-26" style="edgeStyle=orthogonalEdgeStyle;rounded=0;orthogonalLoop=1;jettySize=auto;html=1;fontColor=#000000;startArrow=none;startFill=0;strokeColor=#EA6B66;exitX=1;exitY=0.5;exitDx=0;exitDy=0;" parent="W0MKTiDh_IUzFeJurTNY-1" source="W0MKTiDh_IUzFeJurTNY-25" edge="1">
          <mxGeometry relative="1" as="geometry">
            <mxPoint x="430" y="470" as="sourcePoint" />
            <mxPoint x="440" y="460" as="targetPoint" />
          </mxGeometry>
        </mxCell>
        <mxCell id="W0MKTiDh_IUzFeJurTNY-27" style="edgeStyle=orthogonalEdgeStyle;rounded=0;orthogonalLoop=1;jettySize=auto;html=1;entryX=0.5;entryY=1;entryDx=0;entryDy=0;startArrow=classic;startFill=1;dashed=1;strokeColor=#FFB570;exitX=0.5;exitY=0;exitDx=0;exitDy=0;" parent="W0MKTiDh_IUzFeJurTNY-1" source="W0MKTiDh_IUzFeJurTNY-15" target="W0MKTiDh_IUzFeJurTNY-19" edge="1">
          <mxGeometry relative="1" as="geometry">
            <mxPoint x="479.65999999999997" y="600" as="sourcePoint" />
            <mxPoint x="479.65999999999997" y="480" as="targetPoint" />
          </mxGeometry>
        </mxCell>
        <mxCell id="W0MKTiDh_IUzFeJurTNY-28" value="读取测试&lt;br&gt;领域数据" style="edgeLabel;html=1;align=center;verticalAlign=middle;resizable=0;points=[];fontSize=10;fontColor=#000000;" parent="W0MKTiDh_IUzFeJurTNY-27" vertex="1" connectable="0">
          <mxGeometry x="0.1563" y="1" relative="1" as="geometry">
            <mxPoint x="1" y="-29" as="offset" />
          </mxGeometry>
        </mxCell>
        <mxCell id="W0MKTiDh_IUzFeJurTNY-29" value="用例已执行" style="rounded=0;whiteSpace=wrap;html=1;fillColor=#dae8fc;strokeColor=#6c8ebf;" parent="W0MKTiDh_IUzFeJurTNY-1" vertex="1">
          <mxGeometry x="640" y="660" width="80" height="40" as="geometry" />
        </mxCell>
        <mxCell id="W0MKTiDh_IUzFeJurTNY-30" value="用例查看&lt;br&gt;页面嵌套" style="rounded=0;whiteSpace=wrap;html=1;fillColor=#fff2cc;strokeColor=#d6b656;dashed=1;" parent="W0MKTiDh_IUzFeJurTNY-1" vertex="1">
          <mxGeometry x="640" y="600" width="80" height="40" as="geometry" />
        </mxCell>
        <mxCell id="W0MKTiDh_IUzFeJurTNY-31" style="edgeStyle=orthogonalEdgeStyle;rounded=0;orthogonalLoop=1;jettySize=auto;html=1;entryX=0.5;entryY=1;entryDx=0;entryDy=0;fontColor=#000000;startArrow=none;startFill=0;strokeColor=#FFB570;" parent="W0MKTiDh_IUzFeJurTNY-1" target="W0MKTiDh_IUzFeJurTNY-30" edge="1">
          <mxGeometry relative="1" as="geometry">
            <mxPoint x="680" y="660" as="sourcePoint" />
            <mxPoint x="790" y="630" as="targetPoint" />
            <Array as="points" />
          </mxGeometry>
        </mxCell>
        <mxCell id="W0MKTiDh_IUzFeJurTNY-32" value="" style="edgeStyle=orthogonalEdgeStyle;rounded=0;orthogonalLoop=1;jettySize=auto;html=1;fontSize=15;fontColor=#3399FF;strokeColor=#66B2FF;entryX=0;entryY=0.5;entryDx=0;entryDy=0;" parent="W0MKTiDh_IUzFeJurTNY-1" target="W0MKTiDh_IUzFeJurTNY-21" edge="1">
          <mxGeometry relative="1" as="geometry">
            <mxPoint x="720" y="680" as="sourcePoint" />
            <mxPoint x="740" y="680" as="targetPoint" />
          </mxGeometry>
        </mxCell>
        <mxCell id="W0MKTiDh_IUzFeJurTNY-33" style="edgeStyle=orthogonalEdgeStyle;rounded=0;orthogonalLoop=1;jettySize=auto;html=1;strokeColor=#66B2FF;" parent="W0MKTiDh_IUzFeJurTNY-1" source="W0MKTiDh_IUzFeJurTNY-34" target="W0MKTiDh_IUzFeJurTNY-24" edge="1">
          <mxGeometry relative="1" as="geometry" />
        </mxCell>
        <mxCell id="W0MKTiDh_IUzFeJurTNY-34" value="用例已设计" style="rounded=0;whiteSpace=wrap;html=1;fillColor=#dae8fc;strokeColor=#6c8ebf;" parent="W0MKTiDh_IUzFeJurTNY-1" vertex="1">
          <mxGeometry x="440" y="660" width="80" height="40" as="geometry" />
        </mxCell>
        <mxCell id="W0MKTiDh_IUzFeJurTNY-35" value="生产&lt;br&gt;已部署" style="ellipse;whiteSpace=wrap;html=1;aspect=fixed;fillColor=#dae8fc;strokeColor=#6c8ebf;" parent="W0MKTiDh_IUzFeJurTNY-1" vertex="1">
          <mxGeometry x="800" y="655" width="50" height="50" as="geometry" />
        </mxCell>
        <mxCell id="W0MKTiDh_IUzFeJurTNY-36" style="edgeStyle=orthogonalEdgeStyle;rounded=0;orthogonalLoop=1;jettySize=auto;html=1;entryX=0.5;entryY=1;entryDx=0;entryDy=0;startArrow=classic;startFill=1;dashed=1;strokeColor=#FFB570;" parent="W0MKTiDh_IUzFeJurTNY-1" source="W0MKTiDh_IUzFeJurTNY-35" target="W0MKTiDh_IUzFeJurTNY-22" edge="1">
          <mxGeometry relative="1" as="geometry">
            <mxPoint x="815" y="610" as="sourcePoint" />
            <mxPoint x="815" y="470" as="targetPoint" />
          </mxGeometry>
        </mxCell>
        <mxCell id="W0MKTiDh_IUzFeJurTNY-37" value="自动触发&lt;br&gt;资产入库" style="edgeLabel;html=1;align=center;verticalAlign=middle;resizable=0;points=[];fontColor=#000000;fontSize=10;" parent="W0MKTiDh_IUzFeJurTNY-36" vertex="1" connectable="0">
          <mxGeometry x="0.3214" y="1" relative="1" as="geometry">
            <mxPoint x="1" y="-36" as="offset" />
          </mxGeometry>
        </mxCell>
        <mxCell id="W0MKTiDh_IUzFeJurTNY-38" value="查看&lt;br&gt;测试用例" style="rounded=0;whiteSpace=wrap;html=1;fillColor=#f8cecc;strokeColor=#b85450;" parent="W0MKTiDh_IUzFeJurTNY-1" vertex="1">
          <mxGeometry x="640" y="440" width="80" height="40" as="geometry" />
        </mxCell>
        <mxCell id="W0MKTiDh_IUzFeJurTNY-39" style="edgeStyle=orthogonalEdgeStyle;rounded=0;orthogonalLoop=1;jettySize=auto;html=1;startArrow=classic;startFill=1;dashed=1;strokeColor=#FFB570;" parent="W0MKTiDh_IUzFeJurTNY-1" source="W0MKTiDh_IUzFeJurTNY-30" target="W0MKTiDh_IUzFeJurTNY-38" edge="1">
          <mxGeometry relative="1" as="geometry">
            <mxPoint x="590" y="610" as="sourcePoint" />
            <mxPoint x="590" y="490" as="targetPoint" />
          </mxGeometry>
        </mxCell>
        <mxCell id="W0MKTiDh_IUzFeJurTNY-40" value="读取测试&lt;br&gt;领域数据" style="edgeLabel;html=1;align=center;verticalAlign=middle;resizable=0;points=[];fontSize=10;fontColor=#000000;" parent="W0MKTiDh_IUzFeJurTNY-39" vertex="1" connectable="0">
          <mxGeometry x="0.1563" y="1" relative="1" as="geometry">
            <mxPoint x="1" y="-29" as="offset" />
          </mxGeometry>
        </mxCell>
      </root>
    </mxGraphModel>
  </diagram>
  <diagram name="文档逻辑架构" id="ym-bI8quH1WqGXynBOZ6">
    <mxGraphModel dx="942" dy="737" grid="0" gridSize="10" guides="1" tooltips="1" connect="1" arrows="1" fold="1" page="1" pageScale="1" pageWidth="1169" pageHeight="827" background="none" math="0" shadow="0">
      <root>
        <mxCell id="n7NfTrBpTZIUbaoxkTW7-0" />
        <mxCell id="n7NfTrBpTZIUbaoxkTW7-1" parent="n7NfTrBpTZIUbaoxkTW7-0" />
        <mxCell id="a1LZI1ecXrtEW7hLgvI0-3" value="&lt;font style=&quot;font-size: 15px;&quot;&gt;研发文档管理工具&lt;/font&gt;" style="rounded=0;whiteSpace=wrap;html=1;labelPosition=center;verticalLabelPosition=middle;align=center;verticalAlign=top;fontSize=15;fillColor=none;" parent="n7NfTrBpTZIUbaoxkTW7-1" vertex="1">
          <mxGeometry x="520" y="240" width="320" height="160" as="geometry" />
        </mxCell>
        <mxCell id="a1LZI1ecXrtEW7hLgvI0-0" value="文档&lt;br&gt;采集导入" style="rounded=0;whiteSpace=wrap;html=1;fillColor=#dae8fc;strokeColor=#6c8ebf;" parent="n7NfTrBpTZIUbaoxkTW7-1" vertex="1">
          <mxGeometry x="540" y="340" width="80" height="40" as="geometry" />
        </mxCell>
        <mxCell id="a1LZI1ecXrtEW7hLgvI0-1" value="文档&lt;br&gt;解析引擎" style="rounded=0;whiteSpace=wrap;html=1;fillColor=#dae8fc;strokeColor=#6c8ebf;" parent="n7NfTrBpTZIUbaoxkTW7-1" vertex="1">
          <mxGeometry x="640" y="340" width="80" height="40" as="geometry" />
        </mxCell>
        <mxCell id="a1LZI1ecXrtEW7hLgvI0-2" value="结构化&lt;br&gt;数据存储" style="rounded=0;whiteSpace=wrap;html=1;fillColor=#dae8fc;strokeColor=#6c8ebf;" parent="n7NfTrBpTZIUbaoxkTW7-1" vertex="1">
          <mxGeometry x="740" y="340" width="80" height="40" as="geometry" />
        </mxCell>
        <mxCell id="a1LZI1ecXrtEW7hLgvI0-4" value="文档&lt;br&gt;结构化建模" style="rounded=0;whiteSpace=wrap;html=1;fillColor=#dae8fc;strokeColor=#6c8ebf;" parent="n7NfTrBpTZIUbaoxkTW7-1" vertex="1">
          <mxGeometry x="540" y="280" width="80" height="40" as="geometry" />
        </mxCell>
        <mxCell id="a1LZI1ecXrtEW7hLgvI0-5" value="文档&lt;br&gt;评审流程" style="rounded=0;whiteSpace=wrap;html=1;fillColor=#dae8fc;strokeColor=#6c8ebf;" parent="n7NfTrBpTZIUbaoxkTW7-1" vertex="1">
          <mxGeometry x="640" y="280" width="80" height="40" as="geometry" />
        </mxCell>
        <mxCell id="a1LZI1ecXrtEW7hLgvI0-6" value="文档&lt;br&gt;版本管理" style="rounded=0;whiteSpace=wrap;html=1;fillColor=#dae8fc;strokeColor=#6c8ebf;" parent="n7NfTrBpTZIUbaoxkTW7-1" vertex="1">
          <mxGeometry x="740" y="280" width="80" height="40" as="geometry" />
        </mxCell>
        <mxCell id="JGsChz9LpzKiIXai-fhE-3" value="" style="edgeStyle=orthogonalEdgeStyle;rounded=0;orthogonalLoop=1;jettySize=auto;html=1;strokeColor=#3399FF;" edge="1" parent="n7NfTrBpTZIUbaoxkTW7-1" source="JGsChz9LpzKiIXai-fhE-1" target="JGsChz9LpzKiIXai-fhE-2">
          <mxGeometry relative="1" as="geometry" />
        </mxCell>
        <mxCell id="JGsChz9LpzKiIXai-fhE-1" value="自定义领域层级" style="rounded=0;whiteSpace=wrap;html=1;fillColor=#dae8fc;strokeColor=#6c8ebf;" vertex="1" parent="n7NfTrBpTZIUbaoxkTW7-1">
          <mxGeometry x="160" y="160" width="120" height="40" as="geometry" />
        </mxCell>
        <mxCell id="JGsChz9LpzKiIXai-fhE-7" value="" style="edgeStyle=orthogonalEdgeStyle;rounded=0;orthogonalLoop=1;jettySize=auto;html=1;strokeColor=#3399FF;" edge="1" parent="n7NfTrBpTZIUbaoxkTW7-1" source="JGsChz9LpzKiIXai-fhE-2" target="JGsChz9LpzKiIXai-fhE-6">
          <mxGeometry relative="1" as="geometry" />
        </mxCell>
        <mxCell id="JGsChz9LpzKiIXai-fhE-2" value="编写需求文档" style="rounded=0;whiteSpace=wrap;html=1;fillColor=#dae8fc;strokeColor=#6c8ebf;" vertex="1" parent="n7NfTrBpTZIUbaoxkTW7-1">
          <mxGeometry x="160" y="220" width="120" height="40" as="geometry" />
        </mxCell>
        <mxCell id="JGsChz9LpzKiIXai-fhE-9" value="" style="edgeStyle=orthogonalEdgeStyle;rounded=0;orthogonalLoop=1;jettySize=auto;html=1;strokeColor=#3399FF;" edge="1" parent="n7NfTrBpTZIUbaoxkTW7-1" source="JGsChz9LpzKiIXai-fhE-6" target="JGsChz9LpzKiIXai-fhE-8">
          <mxGeometry relative="1" as="geometry" />
        </mxCell>
        <mxCell id="JGsChz9LpzKiIXai-fhE-6" value="章节关联资产&lt;br&gt;业务领域/系统/模块" style="rounded=0;whiteSpace=wrap;html=1;fillColor=#dae8fc;strokeColor=#6c8ebf;" vertex="1" parent="n7NfTrBpTZIUbaoxkTW7-1">
          <mxGeometry x="160" y="280" width="120" height="40" as="geometry" />
        </mxCell>
        <mxCell id="JGsChz9LpzKiIXai-fhE-11" value="" style="edgeStyle=orthogonalEdgeStyle;rounded=0;orthogonalLoop=1;jettySize=auto;html=1;strokeColor=#3399FF;" edge="1" parent="n7NfTrBpTZIUbaoxkTW7-1" source="JGsChz9LpzKiIXai-fhE-8" target="JGsChz9LpzKiIXai-fhE-10">
          <mxGeometry relative="1" as="geometry" />
        </mxCell>
        <mxCell id="JGsChz9LpzKiIXai-fhE-8" value="指定层级合稿" style="rounded=0;whiteSpace=wrap;html=1;fillColor=#dae8fc;strokeColor=#6c8ebf;" vertex="1" parent="n7NfTrBpTZIUbaoxkTW7-1">
          <mxGeometry x="160" y="340" width="120" height="40" as="geometry" />
        </mxCell>
        <mxCell id="JGsChz9LpzKiIXai-fhE-13" value="" style="edgeStyle=orthogonalEdgeStyle;rounded=0;orthogonalLoop=1;jettySize=auto;html=1;strokeColor=#3399FF;" edge="1" parent="n7NfTrBpTZIUbaoxkTW7-1" source="JGsChz9LpzKiIXai-fhE-10" target="JGsChz9LpzKiIXai-fhE-12">
          <mxGeometry relative="1" as="geometry" />
        </mxCell>
        <mxCell id="JGsChz9LpzKiIXai-fhE-10" value="文档聚合引擎&lt;br&gt;自动抽取内容" style="rounded=0;whiteSpace=wrap;html=1;fillColor=#dae8fc;strokeColor=#6c8ebf;" vertex="1" parent="n7NfTrBpTZIUbaoxkTW7-1">
          <mxGeometry x="160" y="400" width="120" height="40" as="geometry" />
        </mxCell>
        <mxCell id="JGsChz9LpzKiIXai-fhE-12" value="合稿输出&lt;br&gt;需求说明书" style="rounded=0;whiteSpace=wrap;html=1;fillColor=#dae8fc;strokeColor=#6c8ebf;" vertex="1" parent="n7NfTrBpTZIUbaoxkTW7-1">
          <mxGeometry x="160" y="460" width="120" height="40" as="geometry" />
        </mxCell>
      </root>
    </mxGraphModel>
  </diagram>
  <diagram id="4Oc4pDm0hIu5XFr8j137" name="第 9 页">
    <mxGraphModel dx="942" dy="737" grid="1" gridSize="10" guides="1" tooltips="1" connect="1" arrows="1" fold="1" page="1" pageScale="1" pageWidth="1169" pageHeight="827" math="0" shadow="0">
      <root>
        <mxCell id="0" />
        <mxCell id="1" parent="0" />
      </root>
    </mxGraphModel>
  </diagram>
</mxfile>
